<?xml version="1.0" standalone="yes"?>
<svg xmlns="http://www.w3.org/2000/svg" width="2941" height="2883">
<path style="fill:#010101; stroke:none;" d="M0 0L0 2883L2941 2883L2941 0L0 0z"/>
<path style="fill:#ffffff; stroke:none;" d="M1463 484L1463 581C1745.93 584.122 2031.75 703.355 2221.87 917.036C2311.32 1017.57 2380.31 1132.31 2428.29 1258.27C2467.88 1362.23 2486.93 1475.01 2490.98 1585C2492.04 1613.87 2490.96 1643.28 2488.95 1671.99C2487.95 1686.28 2485 1700.56 2485 1715L691 1715C691 1750.31 701.717 1785.16 710.549 1819.17C725.474 1876.62 748.721 1931.73 777.147 1983.73C860.958 2137.03 995.28 2260.71 1156.96 2328.12C1183.99 2339.39 1211.82 2351.05 1240.29 2358.55C1293.35 2372.52 1344.8 2381.04 1399 2387.13C1425.16 2390.07 1452.52 2391.95 1479 2390.98C1585.75 2387.1 1686.64 2363.37 1785.44 2322.05C1932.52 2260.53 2059.88 2142 2139.25 2005.01C2157.62 1973.31 2174.65 1940.56 2187.71 1906.27C2192.47 1893.79 2200.95 1880.66 2201 1867L2457 1867C2452.29 1876.04 2451.22 1887.93 2448.29 1897.72C2441.67 1919.84 2434.51 1942.14 2426.29 1963.73C2401.07 2029.93 2369.52 2093.8 2332.16 2154C2152.8 2442.98 1828.53 2622.7 1491 2634.98C1469.5 2635.76 1448.2 2633.79 1427 2633.02C1229.9 2625.84 1038.97 2560.46 876 2448.15C840.791 2423.88 805.063 2396.74 774.325 2367.13C760.993 2354.28 746.793 2342.3 734.019 2329C727.729 2322.45 723.227 2313.24 715.24 2308.28C708.012 2303.79 700.123 2310.54 695.333 2315.33C682.047 2328.62 668.122 2340.75 654.816 2354.07C650.624 2358.27 643.709 2360.81 640.934 2366.33C637.591 2372.98 642.854 2377.63 646.946 2382.01C653.454 2388.99 659.158 2396.49 666 2403.33C697.864 2435.2 731.96 2464.97 767.255 2492.78C876.654 2578.97 1005.25 2648.64 1140 2685.71C1190.63 2699.64 1241.96 2714.58 1294.09 2720.87C1324.58 2724.55 1355.78 2729.4 1386.04 2731.94C1416.23 2734.47 1447.7 2732 1478 2732C1499.08 2732 1520.96 2733.7 1541.96 2731.94C1594.77 2727.51 1648.4 2718.62 1700.83 2708.74C1773.81 2695 1844.74 2668.6 1913.04 2640.12C2196.02 2522.13 2411.52 2282.32 2519.71 1998.27C2544.71 1932.64 2561.16 1864.76 2573.26 1796.09C2579.36 1761.49 2585 1726.33 2585 1691L2588 1691L2588 1525L2585 1525C2585 1478.72 2575.57 1433.2 2567.26 1387.91C2557.05 1332.31 2541.91 1276.77 2521.71 1223.73C2476.22 1104.31 2416 993.359 2335.22 894.04C2200.88 728.871 2011.54 597.901 1806.57 535.71C1753.16 519.503 1698.93 506.253 1644 497.259C1611.14 491.88 1577.83 491.458 1545.01 486.856C1541.79 486.404 1539.25 484.333 1535.96 484.058C1512.01 482.049 1487.05 484 1463 484z"/>
<path style="fill:#656363; stroke:none;" d="M684 1616L2244 1616C2244 1598.07 2244.83 1579.91 2243.96 1562C2243.57 1553.89 2241.04 1546.26 2241 1538C2240.97 1532.12 2241.04 1511.74 2236.27 1508.03C2231.67 1504.45 2217.69 1507 2212 1507L2145 1507L1885 1507L733 1507C733.924 1488.96 739.336 1470.73 742.756 1453C753.054 1399.63 771.64 1346.83 794.804 1297.71C896.104 1082.88 1099.23 921.068 1335 881.259C1407.4 869.034 1479 869.221 1552 875.093C1580.04 877.349 1608.63 883.912 1636 890.56C1747.65 917.676 1849.2 969.96 1938.01 1042.6C1954.17 1055.82 1969.25 1070.25 1984 1085C1989.52 1090.52 1996.94 1101.55 2004.27 1104.38C2007.81 1105.74 2010.42 1102.8 2012.76 1100.65C2018.47 1095.42 2033.01 1086.72 2034.63 1078.87C2035.45 1074.88 2031.1 1071.8 2028.67 1069.33C2022.09 1062.64 2015.95 1055.57 2009.04 1049.18C1979.65 1022.03 1949.92 995.606 1917.04 972.667C1797.47 889.252 1658.83 839.741 1514 828.093C1493.94 826.479 1473.13 828 1453 828C1176.98 828 911.999 990.701 780.079 1232.56C715.656 1350.68 684 1482.21 684 1616z"/>
<path style="fill:#2f2f2f; stroke:none;" d="M764 1764L764 1765L805 1765L805 1769L806 1769L806 1764L764 1764M868 1764L868 1765L873 1765L868 1764M996 1764L996 1765L1001 1765L996 1764M1191 1764L1191 1765L1196 1765L1191 1764z"/>
<path style="fill:#010101; stroke:none;" d="M764 1765L764 1769L800 1769C793.975 1777.41 782.71 1788.42 782 1799C786.185 1799 790.157 1798.91 794 1800.84C821.497 1814.61 785.295 1849.08 768.854 1824.98C766.948 1822.19 766.297 1819.29 766 1816L761 1816C761.611 1820.53 762.551 1825.28 765.419 1828.98C768.358 1832.78 772.412 1835.25 777 1836.51C787.163 1839.3 798.972 1837.09 805.348 1828C815.265 1813.85 804.121 1795.83 788 1795C793.333 1785.43 804.386 1776.36 805 1765L764 1765M868 1765L868 1797L867 1797C855.874 1773.16 820.713 1785.45 819.091 1809C817.306 1834.92 854.084 1849.88 867 1825L868 1825L868 1837L873 1837L873 1765L868 1765M996 1765L996 1774L1001 1774L1001 1765L996 1765z"/>
<path style="fill:#a3a3a3; stroke:none;" d="M1001.33 1765.67L1001.67 1766.33L1001.33 1765.67z"/>
<path style="fill:#010101; stroke:none;" d="M1191 1765L1191 1837L1196 1837L1196 1825L1197 1825C1208.53 1847.17 1242.98 1837.91 1244.91 1814C1247.02 1787.76 1210.42 1771.16 1197 1797L1196 1797L1196 1765L1191 1765z"/>
<path style="fill:#a3a3a3; stroke:none;" d="M1196 1766L1197 1767L1196 1766M764 1769L764 1770L799 1771C794.049 1765.33 771.505 1769 764 1769z"/>
<path style="fill:#656363; stroke:none;" d="M799 1769L800 1770L799 1769M805 1769L806 1770L805 1769z"/>
<path style="fill:#a3a3a3; stroke:none;" d="M1001 1769L1002 1770L1001 1769z"/>
<path style="fill:#2f2f2f; stroke:none;" d="M804 1770L805 1771L804 1770M798 1771L799 1772L798 1771z"/>
<path style="fill:#a3a3a3; stroke:none;" d="M804 1771L805 1772L804 1771z"/>
<path style="fill:#656363; stroke:none;" d="M797 1772L798 1773L797 1772M803 1772L804 1773L803 1772z"/>
<path style="fill:#a3a3a3; stroke:none;" d="M796 1773L797 1774L796 1773z"/>
<path style="fill:#2f2f2f; stroke:none;" d="M802 1773L803 1774L802 1773z"/>
<path style="fill:#a3a3a3; stroke:none;" d="M1001 1773L1002 1774L1001 1773M802 1774L803 1775L802 1774M996 1774L996 1775L1001 1775L996 1774z"/>
<path style="fill:#656363; stroke:none;" d="M795 1775L796 1776L795 1775z"/>
<path style="fill:#a3a3a3; stroke:none;" d="M801 1775L802 1776L801 1775M794 1776L795 1777L794 1776z"/>
<path style="fill:#656363; stroke:none;" d="M800 1776L801 1777L800 1776z"/>
<path style="fill:#2f2f2f; stroke:none;" d="M793 1778L794 1779L793 1778z"/>
<path style="fill:#a3a3a3; stroke:none;" d="M799 1778L800 1779L799 1778z"/>
<path style="fill:#656363; stroke:none;" d="M792 1779L793 1780L792 1779M798 1779L799 1780L798 1779z"/>
<path style="fill:#a3a3a3; stroke:none;" d="M791 1780L792 1781L791 1780z"/>
<path style="fill:#2f2f2f; stroke:none;" d="M797 1780L798 1781L797 1780M791 1781L792 1782L791 1781z"/>
<path style="fill:#a3a3a3; stroke:none;" d="M797 1781L798 1782L797 1781z"/>
<path style="fill:#656363; stroke:none;" d="M790 1782L791 1783L790 1782M796 1782L797 1783L796 1782z"/>
<path style="fill:#a3a3a3; stroke:none;" d="M789 1783L790 1784L789 1783z"/>
<path style="fill:#2f2f2f; stroke:none;" d="M795 1783L796 1784L795 1783z"/>
<path style="fill:#a3a3a3; stroke:none;" d="M838.667 1784.33L839.333 1784.67L838.667 1784.33z"/>
<path style="fill:#656363; stroke:none;" d="M840 1784L841 1785L840 1784z"/>
<path style="fill:#2f2f2f; stroke:none;" d="M841 1784L842 1785L841 1784z"/>
<path style="fill:#656363; stroke:none;" d="M850 1784L851 1785L850 1784z"/>
<path style="fill:#a3a3a3; stroke:none;" d="M851.667 1784.33L852.333 1784.67L851.667 1784.33M904.667 1784.33L905.333 1784.67L904.667 1784.33z"/>
<path style="fill:#656363; stroke:none;" d="M906 1784L907 1785L906 1784z"/>
<path style="fill:#2f2f2f; stroke:none;" d="M907 1784L908 1785L907 1784z"/>
<path style="fill:#010101; stroke:none;" d="M935 1823C928.371 1823.51 925.879 1829.49 920 1831.86C906.466 1837.31 891.663 1827.3 891 1813L937 1813C936.604 1803.81 933.793 1794.26 925.996 1788.64C910.828 1777.7 888.977 1787.88 886.301 1806C882.048 1834.79 922.422 1851.6 935 1823z"/>
<path style="fill:#2f2f2f; stroke:none;" d="M916 1784L917 1785L916 1784z"/>
<path style="fill:#656363; stroke:none;" d="M917 1784L918 1785L917 1784z"/>
<path style="fill:#a3a3a3; stroke:none;" d="M918 1784L919 1785L918 1784M1035 1784L1036 1785L1035 1784z"/>
<path style="fill:#656363; stroke:none;" d="M1036 1784L1037 1785L1036 1784z"/>
<path style="fill:#2f2f2f; stroke:none;" d="M1037 1784L1038 1785L1037 1784z"/>
<path style="fill:#010101; stroke:none;" d="M1065 1825C1065 1833.71 1065.26 1843.34 1057.91 1849.47C1047.43 1858.19 1026.93 1854.5 1024 1840L1019 1840C1022.23 1861.48 1054 1864.32 1065.35 1848C1069.82 1841.56 1069 1833.42 1069 1826L1069 1785L1065 1785L1065 1797C1061.05 1792.72 1057.59 1788.31 1052 1786.12C1047.56 1784.38 1042.71 1783.62 1038 1784.46C999.271 1791.38 1017.11 1850.72 1052 1835.64C1057.42 1833.3 1060.99 1829.15 1065 1825z"/>
<path style="fill:#2f2f2f; stroke:none;" d="M1046 1784L1047 1785L1046 1784z"/>
<path style="fill:#656363; stroke:none;" d="M1047 1784L1048 1785L1047 1784z"/>
<path style="fill:#a3a3a3; stroke:none;" d="M1048 1784L1049 1785L1048 1784M1101 1784L1102 1785L1101 1784z"/>
<path style="fill:#656363; stroke:none;" d="M1102 1784L1103 1785L1102 1784z"/>
<path style="fill:#2f2f2f; stroke:none;" d="M1103 1784L1104 1785L1103 1784z"/>
<path style="fill:#010101; stroke:none;" d="M1090 1793L1090 1785L1085 1785L1085 1837L1090 1837C1090 1825.45 1086.56 1807.27 1092.53 1797.01C1097.92 1787.76 1111.59 1784.95 1117.77 1795.04C1123.92 1805.07 1120 1825.52 1120 1837L1124 1837C1124 1824.47 1127.18 1806.9 1123.15 1795C1117.58 1778.56 1099.15 1784.07 1090 1793z"/>
<path style="fill:#656363; stroke:none;" d="M1111 1784L1112 1785L1111 1784z"/>
<path style="fill:#a3a3a3; stroke:none;" d="M1112 1784L1113 1785L1112 1784M1211.67 1784.33L1212.33 1784.67L1211.67 1784.33z"/>
<path style="fill:#656363; stroke:none;" d="M1213 1784L1214 1785L1213 1784z"/>
<path style="fill:#2f2f2f; stroke:none;" d="M1214 1784L1215 1785L1214 1784M1222 1784L1223 1785L1222 1784z"/>
<path style="fill:#656363; stroke:none;" d="M1223 1784L1224 1785L1223 1784z"/>
<path style="fill:#a3a3a3; stroke:none;" d="M1224.67 1784.33L1225.33 1784.67L1224.67 1784.33M1276 1784L1277 1785L1276 1784z"/>
<path style="fill:#656363; stroke:none;" d="M1277 1784L1278 1785L1277 1784z"/>
<path style="fill:#2f2f2f; stroke:none;" d="M1278 1784L1279 1785L1278 1784z"/>
<path style="fill:#010101; stroke:none;" d="M1279 1784.46C1244.44 1790.64 1252.54 1843.54 1287 1837.38C1321.12 1831.29 1312.97 1778.39 1279 1784.46z"/>
<path style="fill:#2f2f2f; stroke:none;" d="M1287 1784L1288 1785L1287 1784z"/>
<path style="fill:#656363; stroke:none;" d="M1288 1784L1289 1785L1288 1784z"/>
<path style="fill:#a3a3a3; stroke:none;" d="M1289 1784L1290 1785L1289 1784z"/>
<path style="fill:#2f2f2f; stroke:none;" d="M788 1785L789 1786L788 1785z"/>
<path style="fill:#a3a3a3; stroke:none;" d="M794 1785L795 1786L794 1785M835 1785L836 1786L835 1785z"/>
<path style="fill:#656363; stroke:none;" d="M836 1785L837 1786L836 1785M854 1785L855 1786L854 1785z"/>
<path style="fill:#a3a3a3; stroke:none;" d="M855 1785L856 1786L855 1785M901 1785L902 1786L901 1785z"/>
<path style="fill:#656363; stroke:none;" d="M902 1785L903 1786L902 1785M920 1785L921 1786L920 1785z"/>
<path style="fill:#a3a3a3; stroke:none;" d="M921 1785L922 1786L921 1785z"/>
<path style="fill:#010101; stroke:none;" d="M947 1785L947 1790L977 1790L954.974 1821L946 1837L984 1837L984 1832L953 1832C961.72 1819.18 981.311 1800.55 983 1785L947 1785z"/>
<path style="fill:#656363; stroke:none;" d="M983 1785L983 1788L984 1788L983 1785z"/>
<path style="fill:#010101; stroke:none;" d="M996 1785L996 1837L1001 1837L1001 1785L996 1785z"/>
<path style="fill:#a3a3a3; stroke:none;" d="M1001 1785L1002 1786L1001 1785M1032 1785L1033 1786L1032 1785z"/>
<path style="fill:#2f2f2f; stroke:none;" d="M1033 1785L1034 1786L1033 1785M1050 1785L1051 1786L1050 1785z"/>
<path style="fill:#a3a3a3; stroke:none;" d="M1051 1785L1052 1786L1051 1785z"/>
<path style="fill:#656363; stroke:none;" d="M1064 1785L1064 1796L1065 1796L1064 1785z"/>
<path style="fill:#a3a3a3; stroke:none;" d="M1069 1785L1069 1838L1070 1838L1070 1802L1069 1785M1090 1785L1091 1786L1090 1785M1098 1785L1099 1786L1098 1785z"/>
<path style="fill:#2f2f2f; stroke:none;" d="M1099 1785L1100 1786L1099 1785M1114 1785L1115 1786L1114 1785z"/>
<path style="fill:#a3a3a3; stroke:none;" d="M1115 1785L1116 1786L1115 1785M1208 1785L1209 1786L1208 1785z"/>
<path style="fill:#656363; stroke:none;" d="M1209 1785L1210 1786L1209 1785M1227 1785L1228 1786L1227 1785z"/>
<path style="fill:#a3a3a3; stroke:none;" d="M1228 1785L1229 1786L1228 1785M1272 1785L1273 1786L1272 1785z"/>
<path style="fill:#656363; stroke:none;" d="M1273 1785L1274 1786L1273 1785z"/>
<path style="fill:#2f2f2f; stroke:none;" d="M1274 1785L1275 1786L1274 1785M1291 1785L1292 1786L1291 1785z"/>
<path style="fill:#a3a3a3; stroke:none;" d="M1292 1785L1293 1786L1292 1785z"/>
<path style="fill:#2f2f2f; stroke:none;" d="M1316 1785L1317 1786L1316 1785z"/>
<path style="fill:#010101; stroke:none;" d="M1317 1785L1331.31 1810L1315 1837C1324.84 1836.24 1330.13 1820.89 1336 1814C1339.64 1821.69 1346.78 1836.3 1356 1837L1339.43 1810L1354 1785C1345.61 1786.32 1339.84 1799.1 1336 1806C1330.54 1799.59 1325.92 1786.41 1317 1785z"/>
<path style="fill:#2f2f2f; stroke:none;" d="M1321 1785L1322 1786L1321 1785M1349 1785L1350 1786L1349 1785z"/>
<path style="fill:#656363; stroke:none;" d="M1354 1785L1355 1786L1354 1785z"/>
<path style="fill:#a3a3a3; stroke:none;" d="M787 1786L788 1787L787 1786z"/>
<path style="fill:#656363; stroke:none;" d="M793 1786L794 1787L793 1786z"/>
<path style="fill:#a3a3a3; stroke:none;" d="M833 1786L834 1787L833 1786z"/>
<path style="fill:#2f2f2f; stroke:none;" d="M834 1786L835 1787L834 1786M856 1786L857 1787L856 1786z"/>
<path style="fill:#a3a3a3; stroke:none;" d="M857 1786L858 1787L857 1786M899 1786L900 1787L899 1786z"/>
<path style="fill:#2f2f2f; stroke:none;" d="M900 1786L901 1787L900 1786M922 1786L923 1787L922 1786z"/>
<path style="fill:#a3a3a3; stroke:none;" d="M923 1786L924 1787L923 1786M1029 1786L1030 1787L1029 1786z"/>
<path style="fill:#656363; stroke:none;" d="M1030 1786L1031 1787L1030 1786z"/>
<path style="fill:#a3a3a3; stroke:none;" d="M1053 1786L1054 1787L1053 1786M1096 1786L1097 1787L1096 1786z"/>
<path style="fill:#2f2f2f; stroke:none;" d="M1097 1786L1098 1787L1097 1786M1116 1786L1117 1787L1116 1786z"/>
<path style="fill:#a3a3a3; stroke:none;" d="M1117 1786L1118 1787L1117 1786M1206 1786L1207 1787L1206 1786z"/>
<path style="fill:#656363; stroke:none;" d="M1207 1786L1208 1787L1207 1786z"/>
<path style="fill:#2f2f2f; stroke:none;" d="M1229 1786L1230 1787L1229 1786z"/>
<path style="fill:#a3a3a3; stroke:none;" d="M1230 1786L1231 1787L1230 1786M1270 1786L1271 1787L1270 1786z"/>
<path style="fill:#2f2f2f; stroke:none;" d="M1271 1786L1272 1787L1271 1786z"/>
<path style="fill:#656363; stroke:none;" d="M1294 1786L1295 1787L1294 1786z"/>
<path style="fill:#a3a3a3; stroke:none;" d="M1295 1786L1296 1787L1295 1786M1316 1786L1317 1787L1316 1786M1322 1786L1323 1787L1322 1786z"/>
<path style="fill:#656363; stroke:none;" d="M1348 1786L1349 1787L1348 1786z"/>
<path style="fill:#a3a3a3; stroke:none;" d="M786 1787L787 1788L786 1787z"/>
<path style="fill:#2f2f2f; stroke:none;" d="M792 1787L793 1788L792 1787z"/>
<path style="fill:#a3a3a3; stroke:none;" d="M831 1787L832 1788L831 1787z"/>
<path style="fill:#2f2f2f; stroke:none;" d="M832 1787L833 1788L832 1787M858 1787L859 1788L858 1787z"/>
<path style="fill:#a3a3a3; stroke:none;" d="M859 1787L860 1788L859 1787M897 1787L898 1788L897 1787z"/>
<path style="fill:#2f2f2f; stroke:none;" d="M898 1787L899 1788L898 1787M924 1787L925 1788L924 1787z"/>
<path style="fill:#a3a3a3; stroke:none;" d="M925 1787L926 1788L925 1787M1001 1787L1002 1788L1001 1787z"/>
<path style="fill:#656363; stroke:none;" d="M1028 1787L1029 1788L1028 1787z"/>
<path style="fill:#a3a3a3; stroke:none;" d="M1055 1787L1056 1788L1055 1787z"/>
<path style="fill:#656363; stroke:none;" d="M1095 1787L1096 1788L1095 1787z"/>
<path style="fill:#a3a3a3; stroke:none;" d="M1118 1787L1119 1788L1118 1787z"/>
<path style="fill:#656363; stroke:none;" d="M1205 1787L1206 1788L1205 1787z"/>
<path style="fill:#a3a3a3; stroke:none;" d="M1232 1787L1233 1788L1232 1787M1268 1787L1269 1788L1268 1787z"/>
<path style="fill:#2f2f2f; stroke:none;" d="M1269 1787L1270 1788L1269 1787z"/>
<path style="fill:#656363; stroke:none;" d="M1296 1787L1297 1788L1296 1787M1317 1787L1318 1788L1317 1787z"/>
<path style="fill:#a3a3a3; stroke:none;" d="M1323 1787L1324 1788L1323 1787M1347 1787L1348 1788L1347 1787M1353 1787L1354 1788L1353 1787z"/>
<path style="fill:#2f2f2f; stroke:none;" d="M786 1788L787 1789L786 1788z"/>
<path style="fill:#a3a3a3; stroke:none;" d="M792 1788L793 1789L792 1788z"/>
<path style="fill:#656363; stroke:none;" d="M830 1788L831 1789L830 1788z"/>
<path style="fill:#2f2f2f; stroke:none;" d="M843.667 1788.33L844.333 1788.67L843.667 1788.33z"/>
<path style="fill:#656363; stroke:none;" d="M845.667 1788.33L846.333 1788.67L845.667 1788.33z"/>
<path style="fill:#2f2f2f; stroke:none;" d="M847 1788L848 1789L847 1788z"/>
<path style="fill:#656363; stroke:none;" d="M860 1788L861 1789L860 1788M896 1788L897 1789L896 1788z"/>
<path style="fill:#2f2f2f; stroke:none;" d="M909.667 1788.33L910.333 1788.67L909.667 1788.33z"/>
<path style="fill:#656363; stroke:none;" d="M911.667 1788.33L912.333 1788.67L911.667 1788.33z"/>
<path style="fill:#2f2f2f; stroke:none;" d="M913 1788L914 1789L913 1788z"/>
<path style="fill:#a3a3a3; stroke:none;" d="M926 1788L927 1789L926 1788M983 1788L984 1789L983 1788M1026 1788L1027 1789L1026 1788z"/>
<path style="fill:#2f2f2f; stroke:none;" d="M1040 1788L1041 1789L1040 1788z"/>
<path style="fill:#656363; stroke:none;" d="M1041.67 1788.33L1042.33 1788.67L1041.67 1788.33z"/>
<path style="fill:#2f2f2f; stroke:none;" d="M1043.67 1788.33L1044.33 1788.67L1043.67 1788.33z"/>
<path style="fill:#656363; stroke:none;" d="M1056 1788L1057 1789L1056 1788z"/>
<path style="fill:#a3a3a3; stroke:none;" d="M1090 1788L1091 1789L1090 1788z"/>
<path style="fill:#656363; stroke:none;" d="M1094 1788L1095 1789L1094 1788z"/>
<path style="fill:#2f2f2f; stroke:none;" d="M1104.67 1788.33L1105.33 1788.67L1104.67 1788.33z"/>
<path style="fill:#656363; stroke:none;" d="M1106 1788L1107 1789L1106 1788z"/>
<path style="fill:#2f2f2f; stroke:none;" d="M1107.67 1788.33L1108.33 1788.67L1107.67 1788.33z"/>
<path style="fill:#656363; stroke:none;" d="M1119 1788L1120 1789L1119 1788z"/>
<path style="fill:#a3a3a3; stroke:none;" d="M1203 1788L1204 1789L1203 1788z"/>
<path style="fill:#2f2f2f; stroke:none;" d="M1216.67 1788.33L1217.33 1788.67L1216.67 1788.33z"/>
<path style="fill:#656363; stroke:none;" d="M1218 1788L1219 1789L1218 1788z"/>
<path style="fill:#2f2f2f; stroke:none;" d="M1219.67 1788.33L1220.33 1788.67L1219.67 1788.33M1233 1788L1234 1789L1233 1788z"/>
<path style="fill:#656363; stroke:none;" d="M1267 1788L1268 1789L1267 1788z"/>
<path style="fill:#2f2f2f; stroke:none;" d="M1280.67 1788.33L1281.33 1788.67L1280.67 1788.33z"/>
<path style="fill:#656363; stroke:none;" d="M1282.67 1788.33L1283.33 1788.67L1282.67 1788.33z"/>
<path style="fill:#2f2f2f; stroke:none;" d="M1284 1788L1285 1789L1284 1788z"/>
<path style="fill:#a3a3a3; stroke:none;" d="M1298 1788L1299 1789L1298 1788z"/>
<path style="fill:#2f2f2f; stroke:none;" d="M1318 1788L1319 1789L1318 1788M1323 1788L1324 1789L1323 1788M1347 1788L1348 1789L1347 1788M1352 1788L1353 1789L1352 1788z"/>
<path style="fill:#656363; stroke:none;" d="M785 1789L786 1790L785 1789M791 1789L792 1790L791 1789z"/>
<path style="fill:#a3a3a3; stroke:none;" d="M828 1789L829 1790L828 1789z"/>
<path style="fill:#2f2f2f; stroke:none;" d="M829 1789L830 1790L829 1789z"/>
<path style="fill:#656363; stroke:none;" d="M839 1789L840 1790L839 1789z"/>
<path style="fill:#a3a3a3; stroke:none;" d="M840 1789L841 1790L840 1789z"/>
<path style="fill:#ffffff; stroke:none;" d="M841 1789.53C813.354 1795.9 823.289 1838.71 851 1832.32C878.512 1825.97 868.28 1783.24 841 1789.53z"/>
<path style="fill:#a3a3a3; stroke:none;" d="M850.667 1789.33L851.333 1789.67L850.667 1789.33z"/>
<path style="fill:#656363; stroke:none;" d="M852 1789L853 1790L852 1789z"/>
<path style="fill:#2f2f2f; stroke:none;" d="M861 1789L862 1790L861 1789z"/>
<path style="fill:#656363; stroke:none;" d="M895 1789L896 1790L895 1789M905 1789L906 1790L905 1789z"/>
<path style="fill:#a3a3a3; stroke:none;" d="M906 1789L907 1790L906 1789z"/>
<path style="fill:#ffffff; stroke:none;" d="M891 1808L931 1808C929.789 1781.89 895.761 1785.24 891 1808z"/>
<path style="fill:#a3a3a3; stroke:none;" d="M916.667 1789.33L917.333 1789.67L916.667 1789.33z"/>
<path style="fill:#2f2f2f; stroke:none;" d="M918 1789L919 1790L918 1789z"/>
<path style="fill:#656363; stroke:none;" d="M927 1789L928 1790L927 1789z"/>
<path style="fill:#2f2f2f; stroke:none;" d="M982 1789L983 1790L982 1789z"/>
<path style="fill:#656363; stroke:none;" d="M1025 1789L1026 1790L1025 1789z"/>
<path style="fill:#2f2f2f; stroke:none;" d="M1035 1789L1036 1790L1035 1789z"/>
<path style="fill:#a3a3a3; stroke:none;" d="M1036.67 1789.33L1037.33 1789.67L1036.67 1789.33z"/>
<path style="fill:#ffffff; stroke:none;" d="M1038 1789.47C1010.46 1794.63 1018.58 1837.67 1046 1832.53C1073.99 1827.29 1066.08 1784.2 1038 1789.47z"/>
<path style="fill:#a3a3a3; stroke:none;" d="M1046.67 1789.33L1047.33 1789.67L1046.67 1789.33z"/>
<path style="fill:#656363; stroke:none;" d="M1048 1789L1049 1790L1048 1789z"/>
<path style="fill:#a3a3a3; stroke:none;" d="M1058 1789L1059 1790L1058 1789z"/>
<path style="fill:#2f2f2f; stroke:none;" d="M1093 1789L1094 1790L1093 1789M1100 1789L1101 1790L1100 1789z"/>
<path style="fill:#a3a3a3; stroke:none;" d="M1101.67 1789.33L1102.33 1789.67L1101.67 1789.33M1110.67 1789.33L1111.33 1789.67L1110.67 1789.33z"/>
<path style="fill:#2f2f2f; stroke:none;" d="M1112 1789L1113 1790L1112 1789z"/>
<path style="fill:#a3a3a3; stroke:none;" d="M1120 1789L1121 1790L1120 1789z"/>
<path style="fill:#656363; stroke:none;" d="M1202 1789L1203 1790L1202 1789z"/>
<path style="fill:#2f2f2f; stroke:none;" d="M1211 1789L1212 1790L1211 1789z"/>
<path style="fill:#a3a3a3; stroke:none;" d="M1212.67 1789.33L1213.33 1789.67L1212.67 1789.33z"/>
<path style="fill:#ffffff; stroke:none;" d="M1214 1789.47C1186.91 1794.58 1194.64 1837.65 1222 1832.53C1250.03 1827.29 1242.18 1784.15 1214 1789.47z"/>
<path style="fill:#a3a3a3; stroke:none;" d="M1223 1789L1224 1790L1223 1789z"/>
<path style="fill:#656363; stroke:none;" d="M1224 1789L1225 1790L1224 1789z"/>
<path style="fill:#2f2f2f; stroke:none;" d="M1225 1789L1226 1790L1225 1789z"/>
<path style="fill:#a3a3a3; stroke:none;" d="M1235 1789L1236 1790L1235 1789M1265 1789L1266 1790L1265 1789z"/>
<path style="fill:#2f2f2f; stroke:none;" d="M1266 1789L1267 1790L1266 1789z"/>
<path style="fill:#656363; stroke:none;" d="M1276 1789L1277 1790L1276 1789z"/>
<path style="fill:#a3a3a3; stroke:none;" d="M1277.67 1789.33L1278.33 1789.67L1277.67 1789.33z"/>
<path style="fill:#ffffff; stroke:none;" d="M1279 1789.47C1251.68 1794.62 1258.54 1837.13 1286 1832.67C1314.33 1828.08 1307.06 1784.18 1279 1789.47z"/>
<path style="fill:#a3a3a3; stroke:none;" d="M1288 1789L1289 1790L1288 1789z"/>
<path style="fill:#656363; stroke:none;" d="M1289 1789L1290 1790L1289 1789M1299 1789L1300 1790L1299 1789z"/>
<path style="fill:#a3a3a3; stroke:none;" d="M1318 1789L1319 1790L1318 1789M1324 1789L1325 1790L1324 1789z"/>
<path style="fill:#656363; stroke:none;" d="M1346 1789L1347 1790L1346 1789z"/>
<path style="fill:#a3a3a3; stroke:none;" d="M784 1790L785 1791L784 1790z"/>
<path style="fill:#2f2f2f; stroke:none;" d="M790 1790L791 1791L790 1790z"/>
<path style="fill:#a3a3a3; stroke:none;" d="M827 1790L828 1791L827 1790z"/>
<path style="fill:#2f2f2f; stroke:none;" d="M836 1790L837 1791L836 1790z"/>
<path style="fill:#a3a3a3; stroke:none;" d="M837 1790L838 1791L837 1790M854 1790L855 1791L854 1790z"/>
<path style="fill:#2f2f2f; stroke:none;" d="M855 1790L856 1791L855 1790M862 1790L863 1791L862 1790M894 1790L895 1791L894 1790M902 1790L903 1791L902 1790z"/>
<path style="fill:#a3a3a3; stroke:none;" d="M903 1790L904 1791L903 1790M919 1790L920 1791L919 1790z"/>
<path style="fill:#656363; stroke:none;" d="M920 1790L921 1791L920 1790z"/>
<path style="fill:#2f2f2f; stroke:none;" d="M928 1790L929 1791L928 1790M976 1790L977 1791L976 1790M1024 1790L1025 1791L1024 1790M1032 1790L1033 1791L1032 1790z"/>
<path style="fill:#a3a3a3; stroke:none;" d="M1033 1790L1034 1791L1033 1790M1050 1790L1051 1791L1050 1790z"/>
<path style="fill:#656363; stroke:none;" d="M1051 1790L1052 1791L1051 1790z"/>
<path style="fill:#a3a3a3; stroke:none;" d="M1059 1790L1060 1791L1059 1790M1090 1790L1090 1793L1092 1792L1092 1791L1090 1790z"/>
<path style="fill:#656363; stroke:none;" d="M1092 1790L1093 1791L1092 1790z"/>
<path style="fill:#2f2f2f; stroke:none;" d="M1098 1790L1099 1791L1098 1790z"/>
<path style="fill:#a3a3a3; stroke:none;" d="M1099 1790L1100 1791L1099 1790M1113 1790L1114 1791L1113 1790M1121 1790L1122 1791L1121 1790z"/>
<path style="fill:#656363; stroke:none;" d="M1201 1790L1202 1791L1201 1790z"/>
<path style="fill:#a3a3a3; stroke:none;" d="M1209 1790L1210 1791L1209 1790M1226 1790L1227 1791L1226 1790z"/>
<path style="fill:#656363; stroke:none;" d="M1227 1790L1228 1791L1227 1790z"/>
<path style="fill:#a3a3a3; stroke:none;" d="M1236 1790L1237 1791L1236 1790M1264 1790L1265 1791L1264 1790z"/>
<path style="fill:#2f2f2f; stroke:none;" d="M1273 1790L1274 1791L1273 1790z"/>
<path style="fill:#a3a3a3; stroke:none;" d="M1274 1790L1275 1791L1274 1790M1291 1790L1292 1791L1291 1790z"/>
<path style="fill:#2f2f2f; stroke:none;" d="M1292 1790L1293 1791L1292 1790M1300 1790L1301 1791L1300 1790z"/>
<path style="fill:#a3a3a3; stroke:none;" d="M1319 1790L1320 1791L1319 1790M1345 1790L1346 1791L1345 1790M1351 1790L1352 1791L1351 1790M790 1791L791 1792L790 1791M826 1791L827 1792L826 1791z"/>
<path style="fill:#2f2f2f; stroke:none;" d="M834 1791L835 1792L834 1791z"/>
<path style="fill:#a3a3a3; stroke:none;" d="M835 1791L836 1792L835 1791M856 1791L857 1792L856 1791z"/>
<path style="fill:#2f2f2f; stroke:none;" d="M863 1791L864 1792L863 1791M893 1791L894 1792L893 1791M900 1791L901 1792L900 1791z"/>
<path style="fill:#a3a3a3; stroke:none;" d="M901 1791L902 1792L901 1791M921 1791L922 1792L921 1791z"/>
<path style="fill:#656363; stroke:none;" d="M922 1791L923 1792L922 1791z"/>
<path style="fill:#2f2f2f; stroke:none;" d="M929 1791L930 1792L929 1791z"/>
<path style="fill:#656363; stroke:none;" d="M975 1791L976 1792L975 1791z"/>
<path style="fill:#a3a3a3; stroke:none;" d="M981 1791L982 1792L981 1791z"/>
<path style="fill:#2f2f2f; stroke:none;" d="M1023 1791L1024 1792L1023 1791z"/>
<path style="fill:#a3a3a3; stroke:none;" d="M1031 1791L1032 1792L1031 1791M1052 1791L1053 1792L1052 1791z"/>
<path style="fill:#2f2f2f; stroke:none;" d="M1053 1791L1054 1792L1053 1791z"/>
<path style="fill:#a3a3a3; stroke:none;" d="M1060 1791L1061 1792L1060 1791M1097 1791L1098 1792L1097 1791z"/>
<path style="fill:#2f2f2f; stroke:none;" d="M1115 1791L1116 1792L1115 1791M1121 1791L1122 1792L1121 1791z"/>
<path style="fill:#656363; stroke:none;" d="M1200 1791L1201 1792L1200 1791z"/>
<path style="fill:#a3a3a3; stroke:none;" d="M1207 1791L1208 1792L1207 1791z"/>
<path style="fill:#656363; stroke:none;" d="M1229 1791L1230 1792L1229 1791M1237 1791L1238 1792L1237 1791z"/>
<path style="fill:#a3a3a3; stroke:none;" d="M1263 1791L1264 1792L1263 1791z"/>
<path style="fill:#2f2f2f; stroke:none;" d="M1271 1791L1272 1792L1271 1791z"/>
<path style="fill:#a3a3a3; stroke:none;" d="M1272 1791L1273 1792L1272 1791M1293 1791L1294 1792L1293 1791z"/>
<path style="fill:#2f2f2f; stroke:none;" d="M1301 1791L1302 1792L1301 1791M1320 1791L1321 1792L1320 1791M1325 1791L1326 1792L1325 1791M1345 1791L1346 1792L1345 1791M1350 1791L1351 1792L1350 1791z"/>
<path style="fill:#656363; stroke:none;" d="M783 1792L784 1793L783 1792z"/>
<path style="fill:#a3a3a3; stroke:none;" d="M789 1792L790 1793L789 1792M825 1792L826 1793L825 1792M833 1792L834 1793L833 1792z"/>
<path style="fill:#656363; stroke:none;" d="M858 1792L859 1793L858 1792z"/>
<path style="fill:#2f2f2f; stroke:none;" d="M864 1792L865 1793L864 1792M892 1792L893 1793L892 1792z"/>
<path style="fill:#a3a3a3; stroke:none;" d="M899 1792L900 1793L899 1792M923 1792L924 1793L923 1792z"/>
<path style="fill:#656363; stroke:none;" d="M930 1792L931 1793L930 1792z"/>
<path style="fill:#a3a3a3; stroke:none;" d="M974 1792L975 1793L974 1792z"/>
<path style="fill:#656363; stroke:none;" d="M980 1792L981 1793L980 1792z"/>
<path style="fill:#2f2f2f; stroke:none;" d="M1022 1792L1023 1793L1022 1792z"/>
<path style="fill:#656363; stroke:none;" d="M1029 1792L1030 1793L1029 1792z"/>
<path style="fill:#a3a3a3; stroke:none;" d="M1054 1792L1055 1793L1054 1792M1061 1792L1062 1793L1061 1792z"/>
<path style="fill:#2f2f2f; stroke:none;" d="M1095 1792L1096 1793L1095 1792M1116 1792L1117 1793L1116 1792z"/>
<path style="fill:#a3a3a3; stroke:none;" d="M1122 1792L1123 1793L1122 1792M1196 1792L1197 1793L1196 1792z"/>
<path style="fill:#656363; stroke:none;" d="M1199 1792L1200 1793L1199 1792M1205 1792L1206 1793L1205 1792z"/>
<path style="fill:#a3a3a3; stroke:none;" d="M1230 1792L1231 1793L1230 1792M1238 1792L1239 1793L1238 1792M1262 1792L1263 1793L1262 1792M1270 1792L1271 1793L1270 1792z"/>
<path style="fill:#656363; stroke:none;" d="M1295 1792L1296 1793L1295 1792z"/>
<path style="fill:#2f2f2f; stroke:none;" d="M1302 1792L1303 1793L1302 1792z"/>
<path style="fill:#a3a3a3; stroke:none;" d="M1320 1792L1321 1793L1320 1792M1326 1792L1327 1793L1326 1792z"/>
<path style="fill:#656363; stroke:none;" d="M1344 1792L1345 1793L1344 1792z"/>
<path style="fill:#a3a3a3; stroke:none;" d="M782 1793L783 1794L782 1793z"/>
<path style="fill:#2f2f2f; stroke:none;" d="M788 1793L789 1794L788 1793z"/>
<path style="fill:#a3a3a3; stroke:none;" d="M824 1793L825 1794L824 1793z"/>
<path style="fill:#2f2f2f; stroke:none;" d="M831 1793L832 1794L831 1793z"/>
<path style="fill:#a3a3a3; stroke:none;" d="M832 1793L833 1794L832 1793M859 1793L860 1794L859 1793z"/>
<path style="fill:#656363; stroke:none;" d="M865 1793L866 1794L865 1793z"/>
<path style="fill:#2f2f2f; stroke:none;" d="M891 1793L892 1794L891 1793z"/>
<path style="fill:#a3a3a3; stroke:none;" d="M898 1793L899 1794L898 1793M924 1793L925 1794L924 1793M931 1793L932 1794L931 1793z"/>
<path style="fill:#2f2f2f; stroke:none;" d="M974 1793L975 1794L974 1793M1021 1793L1022 1794L1021 1793z"/>
<path style="fill:#a3a3a3; stroke:none;" d="M1028 1793L1029 1794L1028 1793z"/>
<path style="fill:#2f2f2f; stroke:none;" d="M1056 1793L1057 1794L1056 1793M1061 1793L1062 1794L1061 1793M1094 1793L1095 1794L1094 1793z"/>
<path style="fill:#a3a3a3; stroke:none;" d="M1198 1793L1199 1794L1198 1793M1204 1793L1205 1794L1204 1793z"/>
<path style="fill:#2f2f2f; stroke:none;" d="M1232 1793L1233 1794L1232 1793z"/>
<path style="fill:#a3a3a3; stroke:none;" d="M1239 1793L1240 1794L1239 1793M1261 1793L1262 1794L1261 1793z"/>
<path style="fill:#2f2f2f; stroke:none;" d="M1268 1793L1269 1794L1268 1793z"/>
<path style="fill:#a3a3a3; stroke:none;" d="M1269 1793L1270 1794L1269 1793M1296 1793L1297 1794L1296 1793z"/>
<path style="fill:#2f2f2f; stroke:none;" d="M1303 1793L1304 1794L1303 1793z"/>
<path style="fill:#656363; stroke:none;" d="M1321 1793L1322 1794L1321 1793z"/>
<path style="fill:#a3a3a3; stroke:none;" d="M1327 1793L1328 1794L1327 1793M1343 1793L1344 1794L1343 1793M1349 1793L1350 1794L1349 1793M781 1794L782 1795L781 1794z"/>
<path style="fill:#656363; stroke:none;" d="M788 1794L789 1795L788 1794z"/>
<path style="fill:#a3a3a3; stroke:none;" d="M789.667 1794.33L790.333 1794.67L789.667 1794.33z"/>
<path style="fill:#2f2f2f; stroke:none;" d="M824 1794L825 1795L824 1794M830 1794L831 1795L830 1794z"/>
<path style="fill:#a3a3a3; stroke:none;" d="M860 1794L861 1795L860 1794M866 1794L867 1795L866 1794M890 1794L891 1795L890 1794z"/>
<path style="fill:#2f2f2f; stroke:none;" d="M896 1794L897 1795L896 1794z"/>
<path style="fill:#a3a3a3; stroke:none;" d="M925 1794L926 1795L925 1794M932 1794L933 1795L932 1794z"/>
<path style="fill:#656363; stroke:none;" d="M973 1794L974 1795L973 1794z"/>
<path style="fill:#a3a3a3; stroke:none;" d="M979 1794L980 1795L979 1794z"/>
<path style="fill:#656363; stroke:none;" d="M1020 1794L1021 1795L1020 1794z"/>
<path style="fill:#a3a3a3; stroke:none;" d="M1027 1794L1028 1795L1027 1794z"/>
<path style="fill:#2f2f2f; stroke:none;" d="M1057 1794L1058 1795L1057 1794z"/>
<path style="fill:#656363; stroke:none;" d="M1062 1794L1063 1795L1062 1794z"/>
<path style="fill:#a3a3a3; stroke:none;" d="M1117 1794L1118 1795L1117 1794M1123 1794L1124 1795L1123 1794M1197 1794L1196 1796L1197 1794M1203 1794L1204 1795L1203 1794z"/>
<path style="fill:#656363; stroke:none;" d="M1233 1794L1234 1795L1233 1794z"/>
<path style="fill:#2f2f2f; stroke:none;" d="M1261 1794L1262 1795L1261 1794M1267 1794L1268 1795L1267 1794z"/>
<path style="fill:#a3a3a3; stroke:none;" d="M1297 1794L1298 1795L1297 1794z"/>
<path style="fill:#656363; stroke:none;" d="M1304 1794L1305 1795L1304 1794z"/>
<path style="fill:#2f2f2f; stroke:none;" d="M1322 1794L1323 1795L1322 1794M1327 1794L1328 1795L1327 1794M1343 1794L1344 1795L1343 1794z"/>
<path style="fill:#656363; stroke:none;" d="M1348 1794L1349 1795L1348 1794M781 1795L782 1796L781 1795M793 1795L794 1796L793 1795z"/>
<path style="fill:#a3a3a3; stroke:none;" d="M794 1795L795 1796L794 1795z"/>
<path style="fill:#656363; stroke:none;" d="M823 1795L824 1796L823 1795z"/>
<path style="fill:#2f2f2f; stroke:none;" d="M829 1795L830 1796L829 1795z"/>
<path style="fill:#a3a3a3; stroke:none;" d="M861 1795L862 1796L861 1795M889 1795L890 1796L889 1795M896 1795L897 1796L896 1795M926 1795L927 1796L926 1795z"/>
<path style="fill:#2f2f2f; stroke:none;" d="M932 1795L933 1796L932 1795z"/>
<path style="fill:#a3a3a3; stroke:none;" d="M972 1795L973 1796L972 1795z"/>
<path style="fill:#656363; stroke:none;" d="M978 1795L979 1796L978 1795z"/>
<path style="fill:#a3a3a3; stroke:none;" d="M1019 1795L1020 1796L1019 1795M1026 1795L1027 1796L1026 1795z"/>
<path style="fill:#2f2f2f; stroke:none;" d="M1058 1795L1059 1796L1058 1795z"/>
<path style="fill:#a3a3a3; stroke:none;" d="M1063 1795L1064 1796L1063 1795M1093 1795L1094 1796L1093 1795z"/>
<path style="fill:#2f2f2f; stroke:none;" d="M1118 1795L1119 1796L1118 1795M1123 1795L1124 1796L1123 1795M1197 1795L1198 1796L1197 1795z"/>
<path style="fill:#a3a3a3; stroke:none;" d="M1202 1795L1203 1796L1202 1795z"/>
<path style="fill:#656363; stroke:none;" d="M1234 1795L1235 1796L1234 1795z"/>
<path style="fill:#2f2f2f; stroke:none;" d="M1240 1795L1241 1796L1240 1795z"/>
<path style="fill:#656363; stroke:none;" d="M1260 1795L1261 1796L1260 1795z"/>
<path style="fill:#2f2f2f; stroke:none;" d="M1266 1795L1267 1796L1266 1795z"/>
<path style="fill:#a3a3a3; stroke:none;" d="M1298 1795L1299 1796L1298 1795M1305 1795L1306 1796L1305 1795M1322 1795L1323 1796L1322 1795M1328 1795L1329 1796L1328 1795z"/>
<path style="fill:#656363; stroke:none;" d="M1342 1795L1343 1796L1342 1795z"/>
<path style="fill:#2f2f2f; stroke:none;" d="M781 1796L781 1799L782 1799L781 1796M795 1796L796 1797L795 1796z"/>
<path style="fill:#656363; stroke:none;" d="M796 1796L797 1797L796 1796z"/>
<path style="fill:#a3a3a3; stroke:none;" d="M822 1796L823 1797L822 1796z"/>
<path style="fill:#2f2f2f; stroke:none;" d="M828 1796L829 1797L828 1796z"/>
<path style="fill:#a3a3a3; stroke:none;" d="M862 1796L863 1797L862 1796z"/>
<path style="fill:#656363; stroke:none;" d="M867 1796L868 1797L867 1796z"/>
<path style="fill:#2f2f2f; stroke:none;" d="M889 1796L890 1797L889 1796z"/>
<path style="fill:#a3a3a3; stroke:none;" d="M895 1796L896 1797L895 1796M927 1796L928 1797L927 1796M933 1796L934 1797L933 1796z"/>
<path style="fill:#2f2f2f; stroke:none;" d="M977 1796L978 1797L977 1796M1019 1796L1020 1797L1019 1796z"/>
<path style="fill:#a3a3a3; stroke:none;" d="M1025 1796L1026 1797L1025 1796z"/>
<path style="fill:#2f2f2f; stroke:none;" d="M1059 1796L1060 1797L1059 1796M1064 1796L1065 1797L1064 1796M1092 1796L1093 1797L1092 1796z"/>
<path style="fill:#a3a3a3; stroke:none;" d="M1118 1796L1119 1797L1118 1796z"/>
<path style="fill:#2f2f2f; stroke:none;" d="M1196 1796L1197 1797L1196 1796z"/>
<path style="fill:#a3a3a3; stroke:none;" d="M1201 1796L1202 1797L1201 1796z"/>
<path style="fill:#656363; stroke:none;" d="M1235 1796L1236 1797L1235 1796z"/>
<path style="fill:#a3a3a3; stroke:none;" d="M1241 1796L1242 1797L1241 1796M1259 1796L1260 1797L1259 1796z"/>
<path style="fill:#2f2f2f; stroke:none;" d="M1265 1796L1266 1797L1265 1796z"/>
<path style="fill:#a3a3a3; stroke:none;" d="M1299 1796L1300 1797L1299 1796M1323 1796L1324 1797L1323 1796M1329 1796L1330 1797L1329 1796M1341 1796L1342 1797L1341 1796M1347 1796L1348 1797L1347 1796z"/>
<path style="fill:#656363; stroke:none;" d="M798 1797L799 1798L798 1797z"/>
<path style="fill:#2f2f2f; stroke:none;" d="M822 1797L823 1798L822 1797z"/>
<path style="fill:#a3a3a3; stroke:none;" d="M828 1797L829 1798L828 1797M863 1797L864 1798L863 1797M888 1797L889 1798L888 1797z"/>
<path style="fill:#656363; stroke:none;" d="M894 1797L895 1798L894 1797z"/>
<path style="fill:#2f2f2f; stroke:none;" d="M928 1797L929 1798L928 1797M933 1797L934 1798L933 1797M971 1797L972 1798L971 1797z"/>
<path style="fill:#a3a3a3; stroke:none;" d="M977 1797L978 1798L977 1797z"/>
<path style="fill:#656363; stroke:none;" d="M1018 1797L1019 1798L1018 1797z"/>
<path style="fill:#a3a3a3; stroke:none;" d="M1024 1797L1025 1798L1024 1797M1092 1797L1093 1798L1092 1797M1124.33 1797.67L1124.67 1798.33L1124.33 1797.67z"/>
<path style="fill:#656363; stroke:none;" d="M1200 1797L1201 1798L1200 1797z"/>
<path style="fill:#2f2f2f; stroke:none;" d="M1236 1797L1237 1798L1236 1797M1259 1797L1260 1798L1259 1797z"/>
<path style="fill:#a3a3a3; stroke:none;" d="M1265 1797L1266 1798L1265 1797M1300 1797L1301 1798L1300 1797z"/>
<path style="fill:#656363; stroke:none;" d="M1306 1797L1307 1798L1306 1797z"/>
<path style="fill:#2f2f2f; stroke:none;" d="M1324 1797L1325 1798L1324 1797M1329 1797L1330 1798L1329 1797M1341 1797L1342 1798L1341 1797z"/>
<path style="fill:#656363; stroke:none;" d="M1346 1797L1347 1798L1346 1797z"/>
<path style="fill:#a3a3a3; stroke:none;" d="M800 1798L801 1799L800 1798M821 1798L822 1799L821 1798M827 1798L828 1799L827 1798z"/>
<path style="fill:#656363; stroke:none;" d="M864 1798L865 1799L864 1798z"/>
<path style="fill:#2f2f2f; stroke:none;" d="M888 1798L889 1799L888 1798z"/>
<path style="fill:#a3a3a3; stroke:none;" d="M928 1798L929 1799L928 1798M934 1798L935 1799L934 1798M970 1798L971 1799L970 1798z"/>
<path style="fill:#656363; stroke:none;" d="M976 1798L977 1799L976 1798z"/>
<path style="fill:#2f2f2f; stroke:none;" d="M1023 1798L1024 1799L1023 1798z"/>
<path style="fill:#a3a3a3; stroke:none;" d="M1060 1798L1061 1799L1060 1798z"/>
<path style="fill:#2f2f2f; stroke:none;" d="M1091 1798L1092 1799L1091 1798M1119 1798L1120 1799L1119 1798M1199 1798L1200 1799L1199 1798z"/>
<path style="fill:#a3a3a3; stroke:none;" d="M1236 1798L1237 1799L1236 1798z"/>
<path style="fill:#656363; stroke:none;" d="M1242 1798L1243 1799L1242 1798z"/>
<path style="fill:#a3a3a3; stroke:none;" d="M1258 1798L1259 1799L1258 1798M1264 1798L1265 1799L1264 1798z"/>
<path style="fill:#2f2f2f; stroke:none;" d="M1301 1798L1302 1799L1301 1798z"/>
<path style="fill:#a3a3a3; stroke:none;" d="M1324 1798L1325 1799L1324 1798z"/>
<path style="fill:#656363; stroke:none;" d="M1330 1798L1331 1799L1330 1798M1340 1798L1341 1799L1340 1798z"/>
<path style="fill:#a3a3a3; stroke:none;" d="M788.667 1799.33L789.333 1799.67L788.667 1799.33z"/>
<path style="fill:#656363; stroke:none;" d="M790 1799L791 1800L790 1799z"/>
<path style="fill:#2f2f2f; stroke:none;" d="M791 1799L792 1800L791 1799z"/>
<path style="fill:#656363; stroke:none;" d="M801 1799L802 1800L801 1799z"/>
<path style="fill:#2f2f2f; stroke:none;" d="M821 1799L822 1800L821 1799M826 1799L827 1800L826 1799z"/>
<path style="fill:#a3a3a3; stroke:none;" d="M887 1799L888 1800L887 1799M893 1799L894 1800L893 1799z"/>
<path style="fill:#656363; stroke:none;" d="M929 1799L930 1800L929 1799z"/>
<path style="fill:#2f2f2f; stroke:none;" d="M934 1799L935 1800L934 1799z"/>
<path style="fill:#a3a3a3; stroke:none;" d="M969 1799L970 1800L969 1799z"/>
<path style="fill:#2f2f2f; stroke:none;" d="M975 1799L976 1800L975 1799z"/>
<path style="fill:#656363; stroke:none;" d="M1017 1799L1018 1800L1017 1799z"/>
<path style="fill:#a3a3a3; stroke:none;" d="M1023 1799L1024 1800L1023 1799z"/>
<path style="fill:#2f2f2f; stroke:none;" d="M1061 1799L1062 1800L1061 1799z"/>
<path style="fill:#a3a3a3; stroke:none;" d="M1091 1799L1092 1800L1091 1799z"/>
<path style="fill:#656363; stroke:none;" d="M1119 1799L1120 1800L1119 1799M1124 1799L1125 1800L1124 1799z"/>
<path style="fill:#a3a3a3; stroke:none;" d="M1199 1799L1200 1800L1199 1799z"/>
<path style="fill:#656363; stroke:none;" d="M1237 1799L1238 1800L1237 1799z"/>
<path style="fill:#2f2f2f; stroke:none;" d="M1263 1799L1264 1800L1263 1799z"/>
<path style="fill:#a3a3a3; stroke:none;" d="M1301 1799L1302 1800L1301 1799z"/>
<path style="fill:#656363; stroke:none;" d="M1307 1799L1308 1800L1307 1799z"/>
<path style="fill:#a3a3a3; stroke:none;" d="M1325 1799L1326 1800L1325 1799M1331 1799L1332 1800L1331 1799M1339 1799L1340 1800L1339 1799M1345 1799L1346 1800L1345 1799M793 1800L794 1801L793 1800z"/>
<path style="fill:#2f2f2f; stroke:none;" d="M802 1800L803 1801L802 1800z"/>
<path style="fill:#a3a3a3; stroke:none;" d="M820 1800L821 1801L820 1800M826 1800L827 1801L826 1800M865 1800L866 1801L865 1800z"/>
<path style="fill:#656363; stroke:none;" d="M887 1800L888 1801L887 1800z"/>
<path style="fill:#2f2f2f; stroke:none;" d="M892 1800L893 1801L892 1800z"/>
<path style="fill:#a3a3a3; stroke:none;" d="M935 1800L936 1801L935 1800z"/>
<path style="fill:#2f2f2f; stroke:none;" d="M969 1800L970 1801L969 1800z"/>
<path style="fill:#a3a3a3; stroke:none;" d="M975 1800L976 1801L975 1800z"/>
<path style="fill:#656363; stroke:none;" d="M1022 1800L1023 1801L1022 1800z"/>
<path style="fill:#a3a3a3; stroke:none;" d="M1061 1800L1062 1801L1061 1800M1119 1800L1119 1837L1120 1837C1120 1826.35 1123.11 1809.8 1119 1800z"/>
<path style="fill:#2f2f2f; stroke:none;" d="M1124 1800L1124 1837L1125 1837C1125 1826.35 1128.11 1809.8 1124 1800z"/>
<path style="fill:#656363; stroke:none;" d="M1198 1800L1199 1801L1198 1800z"/>
<path style="fill:#a3a3a3; stroke:none;" d="M1243 1800L1244 1801L1243 1800M1257 1800L1258 1801L1257 1800M1263 1800L1264 1801L1263 1800z"/>
<path style="fill:#656363; stroke:none;" d="M1302 1800L1303 1801L1302 1800z"/>
<path style="fill:#2f2f2f; stroke:none;" d="M1326 1800L1327 1801L1326 1800M1331 1800L1332 1801L1331 1800M1339 1800L1340 1801L1339 1800z"/>
<path style="fill:#656363; stroke:none;" d="M1344 1800L1345 1801L1344 1800z"/>
<path style="fill:#a3a3a3; stroke:none;" d="M795 1801L796 1802L795 1801z"/>
<path style="fill:#2f2f2f; stroke:none;" d="M803 1801L804 1802L803 1801z"/>
<path style="fill:#656363; stroke:none;" d="M820 1801L821 1802L820 1801z"/>
<path style="fill:#2f2f2f; stroke:none;" d="M825 1801L826 1802L825 1801z"/>
<path style="fill:#a3a3a3; stroke:none;" d="M892 1801L893 1802L892 1801z"/>
<path style="fill:#2f2f2f; stroke:none;" d="M930 1801L931 1802L930 1801z"/>
<path style="fill:#656363; stroke:none;" d="M935 1801L936 1802L935 1801M968 1801L969 1802L968 1801z"/>
<path style="fill:#a3a3a3; stroke:none;" d="M974 1801L975 1802L974 1801M1016 1801L1017 1802L1016 1801z"/>
<path style="fill:#656363; stroke:none;" d="M1062 1801L1063 1802L1062 1801z"/>
<path style="fill:#2f2f2f; stroke:none;" d="M1090 1801L1091 1802L1090 1801z"/>
<path style="fill:#a3a3a3; stroke:none;" d="M1198 1801L1199 1802L1198 1801z"/>
<path style="fill:#656363; stroke:none;" d="M1238 1801L1239 1802L1238 1801z"/>
<path style="fill:#2f2f2f; stroke:none;" d="M1243 1801L1244 1802L1243 1801M1257 1801L1258 1802L1257 1801M1262 1801L1263 1802L1262 1801z"/>
<path style="fill:#a3a3a3; stroke:none;" d="M1308 1801L1309 1802L1308 1801M1326 1801L1327 1802L1326 1801M1332 1801L1333 1802L1332 1801z"/>
<path style="fill:#656363; stroke:none;" d="M1338 1801L1339 1802L1338 1801M797 1802L798 1803L797 1802M804 1802L805 1803L804 1802z"/>
<path style="fill:#a3a3a3; stroke:none;" d="M825 1802L826 1803L825 1802z"/>
<path style="fill:#656363; stroke:none;" d="M866 1802L867 1803L866 1802z"/>
<path style="fill:#a3a3a3; stroke:none;" d="M886.333 1802.67L886.667 1803.33L886.333 1802.67M930 1802L931 1803L930 1802z"/>
<path style="fill:#2f2f2f; stroke:none;" d="M935 1802L936 1803L935 1802z"/>
<path style="fill:#a3a3a3; stroke:none;" d="M967 1802L968 1803L967 1802z"/>
<path style="fill:#656363; stroke:none;" d="M973 1802L974 1803L973 1802z"/>
<path style="fill:#2f2f2f; stroke:none;" d="M1016 1802L1017 1803L1016 1802z"/>
<path style="fill:#656363; stroke:none;" d="M1021 1802L1022 1803L1021 1802z"/>
<path style="fill:#a3a3a3; stroke:none;" d="M1062 1802L1063 1803L1062 1802z"/>
<path style="fill:#656363; stroke:none;" d="M1090 1802L1091 1803L1090 1802z"/>
<path style="fill:#2f2f2f; stroke:none;" d="M1197 1802L1198 1803L1197 1802z"/>
<path style="fill:#a3a3a3; stroke:none;" d="M1238 1802L1239 1803L1238 1802M1244.33 1802.67L1244.67 1803.33L1244.33 1802.67M1262 1802L1263 1803L1262 1802z"/>
<path style="fill:#656363; stroke:none;" d="M1303 1802L1304 1803L1303 1802z"/>
<path style="fill:#2f2f2f; stroke:none;" d="M1308 1802L1309 1803L1308 1802z"/>
<path style="fill:#a3a3a3; stroke:none;" d="M1327 1802L1328 1803L1327 1802M1333 1802L1334 1803L1333 1802M1337 1802L1338 1803L1337 1802M1343 1802L1344 1803L1343 1802z"/>
<path style="fill:#656363; stroke:none;" d="M798 1803L799 1804L798 1803z"/>
<path style="fill:#a3a3a3; stroke:none;" d="M805 1803L806 1804L805 1803M819 1803L820 1804L819 1803M866 1803L867 1804L866 1803z"/>
<path style="fill:#2f2f2f; stroke:none;" d="M891 1803L892 1804L891 1803M967 1803L968 1804L967 1803z"/>
<path style="fill:#a3a3a3; stroke:none;" d="M1021 1803L1022 1804L1021 1803M1090 1803L1090 1808L1091 1808L1090 1803M1197 1803L1198 1804L1197 1803z"/>
<path style="fill:#2f2f2f; stroke:none;" d="M1239 1803L1240 1804L1239 1803z"/>
<path style="fill:#a3a3a3; stroke:none;" d="M1256 1803L1257 1804L1256 1803M1303 1803L1304 1804L1303 1803z"/>
<path style="fill:#2f2f2f; stroke:none;" d="M1328 1803L1329 1804L1328 1803M1333 1803L1334 1804L1333 1803M1337 1803L1338 1804L1337 1803z"/>
<path style="fill:#656363; stroke:none;" d="M1342 1803L1343 1804L1342 1803z"/>
<path style="fill:#a3a3a3; stroke:none;" d="M799 1804L800 1805L799 1804M806 1804L807 1805L806 1804z"/>
<path style="fill:#656363; stroke:none;" d="M819 1804L820 1805L819 1804M824 1804L825 1805L824 1804z"/>
<path style="fill:#2f2f2f; stroke:none;" d="M886 1804L887 1805L886 1804z"/>
<path style="fill:#a3a3a3; stroke:none;" d="M891.333 1804.67L891.667 1805.33L891.333 1804.67z"/>
<path style="fill:#2f2f2f; stroke:none;" d="M931 1804L932 1805L931 1804z"/>
<path style="fill:#a3a3a3; stroke:none;" d="M936 1804L937 1805L936 1804z"/>
<path style="fill:#656363; stroke:none;" d="M966 1804L967 1805L966 1804z"/>
<path style="fill:#a3a3a3; stroke:none;" d="M972 1804L973 1805L972 1804M1015.33 1804.67L1015.67 1805.33L1015.33 1804.67z"/>
<path style="fill:#656363; stroke:none;" d="M1063 1804L1064 1805L1063 1804z"/>
<path style="fill:#a3a3a3; stroke:none;" d="M1239.33 1804.67L1239.67 1805.33L1239.33 1804.67z"/>
<path style="fill:#2f2f2f; stroke:none;" d="M1244 1804L1245 1805L1244 1804z"/>
<path style="fill:#656363; stroke:none;" d="M1256 1804L1257 1805L1256 1804M1261 1804L1262 1805L1261 1804z"/>
<path style="fill:#a3a3a3; stroke:none;" d="M1309 1804L1310 1805L1309 1804z"/>
<path style="fill:#656363; stroke:none;" d="M1334 1804L1335 1805L1334 1804M1336 1804L1337 1805L1336 1804M800 1805L801 1806L800 1805M806 1805L807 1806L806 1805z"/>
<path style="fill:#2f2f2f; stroke:none;" d="M819 1805L820 1806L819 1805z"/>
<path style="fill:#a3a3a3; stroke:none;" d="M824.333 1805.67L824.667 1806.33L824.333 1805.67z"/>
<path style="fill:#656363; stroke:none;" d="M867 1805L868 1806L867 1805M931 1805L932 1806L931 1805M936.333 1805.67L936.667 1806.33L936.333 1805.67z"/>
<path style="fill:#a3a3a3; stroke:none;" d="M965 1805L966 1806L965 1805z"/>
<path style="fill:#656363; stroke:none;" d="M971 1805L972 1806L971 1805z"/>
<path style="fill:#2f2f2f; stroke:none;" d="M1020 1805L1021 1806L1020 1805z"/>
<path style="fill:#a3a3a3; stroke:none;" d="M1063 1805L1064 1806L1063 1805z"/>
<path style="fill:#2f2f2f; stroke:none;" d="M1196 1805L1197 1806L1196 1805z"/>
<path style="fill:#a3a3a3; stroke:none;" d="M1261 1805L1262 1806L1261 1805z"/>
<path style="fill:#2f2f2f; stroke:none;" d="M1304 1805L1305 1806L1304 1805z"/>
<path style="fill:#656363; stroke:none;" d="M1309 1805L1310 1806L1309 1805z"/>
<path style="fill:#a3a3a3; stroke:none;" d="M1329 1805L1330 1806L1329 1805z"/>
<path style="fill:#656363; stroke:none;" d="M1335 1805L1336 1806L1335 1805z"/>
<path style="fill:#a3a3a3; stroke:none;" d="M1341 1805L1342 1806L1341 1805z"/>
<path style="fill:#2f2f2f; stroke:none;" d="M801 1806L802 1807L801 1806z"/>
<path style="fill:#a3a3a3; stroke:none;" d="M807 1806L808 1807L807 1806M867.333 1806.67L867.667 1807.33L867.333 1806.67M931 1806C922.995 1812.06 900.988 1808 891 1808L891 1809L922 1809C924.791 1809 931.668 1810.05 931 1806z"/>
<path style="fill:#2f2f2f; stroke:none;" d="M970 1806L971 1807L970 1806z"/>
<path style="fill:#656363; stroke:none;" d="M1015 1806L1016 1807L1015 1806z"/>
<path style="fill:#a3a3a3; stroke:none;" d="M1020 1806L1020 1809L1021 1809L1020 1806z"/>
<path style="fill:#656363; stroke:none;" d="M1196 1806L1197 1807L1196 1806z"/>
<path style="fill:#a3a3a3; stroke:none;" d="M1304 1806L1304 1809L1305 1809L1304 1806z"/>
<path style="fill:#2f2f2f; stroke:none;" d="M1309.33 1806.67L1309.67 1807.33L1309.33 1806.67M1330 1806L1331 1807L1330 1806z"/>
<path style="fill:#656363; stroke:none;" d="M1340 1806L1341 1807L1340 1806z"/>
<path style="fill:#a3a3a3; stroke:none;" d="M801 1807L802 1808L801 1807z"/>
<path style="fill:#656363; stroke:none;" d="M807 1807L808 1808L807 1807z"/>
<path style="fill:#a3a3a3; stroke:none;" d="M885 1807L885 1815L886 1815L885 1807z"/>
<path style="fill:#2f2f2f; stroke:none;" d="M936 1807L937 1808L936 1807z"/>
<path style="fill:#656363; stroke:none;" d="M964 1807L965 1808L964 1807z"/>
<path style="fill:#a3a3a3; stroke:none;" d="M970 1807L971 1808L970 1807z"/>
<path style="fill:#2f2f2f; stroke:none;" d="M1015 1807L1016 1808L1015 1807z"/>
<path style="fill:#a3a3a3; stroke:none;" d="M1196 1807L1196 1815L1197 1815L1196 1807z"/>
<path style="fill:#2f2f2f; stroke:none;" d="M1240 1807L1241 1808L1240 1807z"/>
<path style="fill:#a3a3a3; stroke:none;" d="M1245 1807L1245 1815L1246 1815L1245 1807M1255 1807L1255 1815L1256 1815L1255 1807z"/>
<path style="fill:#2f2f2f; stroke:none;" d="M1339 1807L1340 1808L1339 1807z"/>
<path style="fill:#656363; stroke:none;" d="M802 1808L803 1809L802 1808z"/>
<path style="fill:#a3a3a3; stroke:none;" d="M818 1808L818 1814L819 1814L818 1808z"/>
<path style="fill:#2f2f2f; stroke:none;" d="M823 1808L823 1813L824 1813L823 1808z"/>
<path style="fill:#656363; stroke:none;" d="M931 1808L932 1809L931 1808z"/>
<path style="fill:#a3a3a3; stroke:none;" d="M963 1808L964 1809L963 1808z"/>
<path style="fill:#656363; stroke:none;" d="M969 1808L970 1809L969 1808z"/>
<path style="fill:#2f2f2f; stroke:none;" d="M1064 1808L1065 1809L1064 1808z"/>
<path style="fill:#656363; stroke:none;" d="M1240 1808L1240 1814L1241 1814L1240 1808z"/>
<path style="fill:#a3a3a3; stroke:none;" d="M1331 1808L1332 1809L1331 1808M1339 1808L1340 1809L1339 1808M802 1809L803 1810L802 1809M808 1809L809 1810L808 1809z"/>
<path style="fill:#2f2f2f; stroke:none;" d="M968 1809L969 1810L968 1809z"/>
<path style="fill:#656363; stroke:none;" d="M1064 1809L1064 1813L1065 1813L1064 1809z"/>
<path style="fill:#2f2f2f; stroke:none;" d="M1260 1809L1261 1810L1260 1809M1332 1809L1333 1810L1332 1809z"/>
<path style="fill:#656363; stroke:none;" d="M1338.33 1809.67L1338.67 1810.33L1338.33 1809.67z"/>
<path style="fill:#2f2f2f; stroke:none;" d="M803 1810L804 1811L803 1810z"/>
<path style="fill:#656363; stroke:none;" d="M808 1810L809 1811L808 1810z"/>
<path style="fill:#2f2f2f; stroke:none;" d="M962 1810L963 1811L962 1810z"/>
<path style="fill:#656363; stroke:none;" d="M1260 1810L1261 1811L1260 1810M1332 1810L1333 1811L1332 1810M803 1811L804 1812L803 1811z"/>
<path style="fill:#2f2f2f; stroke:none;" d="M808 1811L809 1812L808 1811z"/>
<path style="fill:#656363; stroke:none;" d="M961 1811L962 1812L961 1811z"/>
<path style="fill:#a3a3a3; stroke:none;" d="M967 1811L968 1812L967 1811z"/>
<path style="fill:#2f2f2f; stroke:none;" d="M1260.33 1811.67L1260.67 1812.33L1260.33 1811.67z"/>
<path style="fill:#a3a3a3; stroke:none;" d="M1331 1811L1332 1812L1331 1811M1339 1811L1340 1812L1339 1811M803 1812L803 1815L804 1815L803 1812M960 1812L961 1813L960 1812z"/>
<path style="fill:#656363; stroke:none;" d="M966 1812L967 1813L966 1812z"/>
<path style="fill:#2f2f2f; stroke:none;" d="M1339 1812L1340 1813L1339 1812z"/>
<path style="fill:#656363; stroke:none;" d="M891 1813L891 1814L937 1814C925.061 1808.99 904.003 1813 891 1813z"/>
<path style="fill:#a3a3a3; stroke:none;" d="M1020 1813L1020 1816L1021 1816L1020 1813z"/>
<path style="fill:#2f2f2f; stroke:none;" d="M1064 1813L1065 1814L1064 1813z"/>
<path style="fill:#a3a3a3; stroke:none;" d="M1304.33 1813.67L1304.67 1814.33L1304.33 1813.67z"/>
<path style="fill:#2f2f2f; stroke:none;" d="M1330 1813L1331 1814L1330 1813z"/>
<path style="fill:#656363; stroke:none;" d="M1340 1813L1341 1814L1340 1813z"/>
<path style="fill:#a3a3a3; stroke:none;" d="M809 1814L809 1818L810 1818L809 1814M867.333 1814.67L867.667 1815.33L867.333 1814.67z"/>
<path style="fill:#656363; stroke:none;" d="M959 1814L960 1815L959 1814z"/>
<path style="fill:#a3a3a3; stroke:none;" d="M965 1814L966 1815L965 1814z"/>
<path style="fill:#2f2f2f; stroke:none;" d="M1015 1814L1016 1815L1015 1814M1240 1814L1241 1815L1240 1814M1309 1814L1310 1815L1309 1814z"/>
<path style="fill:#a3a3a3; stroke:none;" d="M1329 1814L1330 1815L1329 1814z"/>
<path style="fill:#656363; stroke:none;" d="M1335 1814L1336 1815L1335 1814z"/>
<path style="fill:#a3a3a3; stroke:none;" d="M1341 1814L1342 1815L1341 1814M824.333 1815.67L824.667 1816.33L824.333 1815.67M958 1815L959 1816L958 1815z"/>
<path style="fill:#656363; stroke:none;" d="M964 1815L965 1816L964 1815M1015 1815L1016 1816L1015 1815M1196 1815L1197 1816L1196 1815z"/>
<path style="fill:#a3a3a3; stroke:none;" d="M1261.33 1815.67L1261.67 1816.33L1261.33 1815.67z"/>
<path style="fill:#656363; stroke:none;" d="M1304 1815L1305 1816L1304 1815M1309.33 1815.67L1309.67 1816.33L1309.33 1815.67M1334 1815L1335 1816L1334 1815M1336 1815L1337 1816L1336 1815z"/>
<path style="fill:#2f2f2f; stroke:none;" d="M1341 1815L1342 1816L1341 1815z"/>
<path style="fill:#a3a3a3; stroke:none;" d="M766 1816L766 1819L767 1819L766 1816z"/>
<path style="fill:#2f2f2f; stroke:none;" d="M819 1816L820 1817L819 1816z"/>
<path style="fill:#656363; stroke:none;" d="M867 1816L868 1817L867 1816z"/>
<path style="fill:#a3a3a3; stroke:none;" d="M891.333 1816.67L891.667 1817.33L891.333 1816.67z"/>
<path style="fill:#2f2f2f; stroke:none;" d="M963 1816L964 1817L963 1816z"/>
<path style="fill:#a3a3a3; stroke:none;" d="M1015.33 1816.67L1015.67 1817.33L1015.33 1816.67z"/>
<path style="fill:#2f2f2f; stroke:none;" d="M1020 1816L1021 1817L1020 1816z"/>
<path style="fill:#a3a3a3; stroke:none;" d="M1063 1816L1064 1817L1063 1816z"/>
<path style="fill:#2f2f2f; stroke:none;" d="M1196 1816L1197 1817L1196 1816z"/>
<path style="fill:#a3a3a3; stroke:none;" d="M1239.33 1816.67L1239.67 1817.33L1239.33 1816.67z"/>
<path style="fill:#2f2f2f; stroke:none;" d="M1304 1816L1305 1817L1304 1816M1328 1816L1329 1817L1328 1816M1333 1816L1334 1817L1333 1816z"/>
<path style="fill:#656363; stroke:none;" d="M1342 1816L1343 1817L1342 1816z"/>
<path style="fill:#a3a3a3; stroke:none;" d="M803 1817L803 1820L804 1820L803 1817z"/>
<path style="fill:#656363; stroke:none;" d="M819 1817L820 1818L819 1817M824 1817L825 1818L824 1817z"/>
<path style="fill:#2f2f2f; stroke:none;" d="M886 1817L887 1818L886 1817M957 1817L958 1818L957 1817z"/>
<path style="fill:#a3a3a3; stroke:none;" d="M963 1817L964 1818L963 1817z"/>
<path style="fill:#656363; stroke:none;" d="M1063 1817L1064 1818L1063 1817z"/>
<path style="fill:#2f2f2f; stroke:none;" d="M1244 1817L1245 1818L1244 1817z"/>
<path style="fill:#656363; stroke:none;" d="M1256 1817L1257 1818L1256 1817M1261 1817L1262 1818L1261 1817z"/>
<path style="fill:#a3a3a3; stroke:none;" d="M1309 1817L1310 1818L1309 1817M1327 1817L1328 1818L1327 1817M1333 1817L1334 1818L1333 1817M1337 1817L1338 1818L1337 1817M1343 1817L1344 1818L1343 1817M819 1818L820 1819L819 1818M866 1818L867 1819L866 1818M886.333 1818.67L886.667 1819.33L886.333 1818.67z"/>
<path style="fill:#2f2f2f; stroke:none;" d="M891 1818L892 1819L891 1818z"/>
<path style="fill:#a3a3a3; stroke:none;" d="M956 1818L957 1819L956 1818z"/>
<path style="fill:#656363; stroke:none;" d="M962 1818L963 1819L962 1818z"/>
<path style="fill:#a3a3a3; stroke:none;" d="M1021 1818L1022 1819L1021 1818M1197 1818L1198 1819L1197 1818z"/>
<path style="fill:#2f2f2f; stroke:none;" d="M1239 1818L1240 1819L1239 1818z"/>
<path style="fill:#a3a3a3; stroke:none;" d="M1244.33 1818.67L1244.67 1819.33L1244.33 1818.67M1256 1818L1257 1819L1256 1818M1303 1818L1304 1819L1303 1818z"/>
<path style="fill:#656363; stroke:none;" d="M1332 1818L1333 1819L1332 1818M1338 1818L1339 1819L1338 1818z"/>
<path style="fill:#2f2f2f; stroke:none;" d="M1343 1818L1344 1819L1343 1818M761 1819L762 1820L761 1819z"/>
<path style="fill:#656363; stroke:none;" d="M766 1819L767 1820L766 1819z"/>
<path style="fill:#a3a3a3; stroke:none;" d="M825 1819L826 1820L825 1819z"/>
<path style="fill:#656363; stroke:none;" d="M866 1819L867 1820L866 1819z"/>
<path style="fill:#a3a3a3; stroke:none;" d="M955 1819L956 1820L955 1819z"/>
<path style="fill:#2f2f2f; stroke:none;" d="M961 1819L962 1820L961 1819z"/>
<path style="fill:#656363; stroke:none;" d="M1016 1819L1017 1820L1016 1819M1021 1819L1022 1820L1021 1819z"/>
<path style="fill:#a3a3a3; stroke:none;" d="M1062 1819L1063 1820L1062 1819z"/>
<path style="fill:#2f2f2f; stroke:none;" d="M1197 1819L1198 1820L1197 1819z"/>
<path style="fill:#a3a3a3; stroke:none;" d="M1238 1819L1239 1820L1238 1819M1262 1819L1263 1820L1262 1819z"/>
<path style="fill:#656363; stroke:none;" d="M1303 1819L1304 1820L1303 1819z"/>
<path style="fill:#2f2f2f; stroke:none;" d="M1308 1819L1309 1820L1308 1819M1326 1819L1327 1820L1326 1819M1331 1819L1332 1820L1331 1819z"/>
<path style="fill:#656363; stroke:none;" d="M1344 1819L1345 1820L1344 1819M761 1820L762 1821L761 1820z"/>
<path style="fill:#2f2f2f; stroke:none;" d="M766 1820L767 1821L766 1820z"/>
<path style="fill:#656363; stroke:none;" d="M803 1820L804 1821L803 1820z"/>
<path style="fill:#2f2f2f; stroke:none;" d="M808 1820L809 1821L808 1820z"/>
<path style="fill:#656363; stroke:none;" d="M820 1820L821 1821L820 1820z"/>
<path style="fill:#2f2f2f; stroke:none;" d="M825 1820L826 1821L825 1820z"/>
<path style="fill:#656363; stroke:none;" d="M892 1820L893 1821L892 1820z"/>
<path style="fill:#2f2f2f; stroke:none;" d="M955 1820L956 1821L955 1820z"/>
<path style="fill:#a3a3a3; stroke:none;" d="M1016 1820L1017 1821L1016 1820M1022 1820L1023 1821L1022 1820z"/>
<path style="fill:#2f2f2f; stroke:none;" d="M1062 1820L1063 1821L1062 1820z"/>
<path style="fill:#a3a3a3; stroke:none;" d="M1198 1820L1199 1821L1198 1820z"/>
<path style="fill:#656363; stroke:none;" d="M1238 1820L1239 1821L1238 1820z"/>
<path style="fill:#2f2f2f; stroke:none;" d="M1243 1820L1244 1821L1243 1820M1257 1820L1258 1821L1257 1820M1262 1820L1263 1821L1262 1820z"/>
<path style="fill:#a3a3a3; stroke:none;" d="M1308 1820L1309 1821L1308 1820M1325 1820L1326 1821L1325 1820M1331 1820L1332 1821L1331 1820M1339 1820L1340 1821L1339 1820M1345 1820L1346 1821L1345 1820M761.333 1821.67L761.667 1822.33L761.333 1821.67z"/>
<path style="fill:#656363; stroke:none;" d="M808 1821L809 1822L808 1821z"/>
<path style="fill:#a3a3a3; stroke:none;" d="M820 1821L821 1822L820 1821M826 1821L827 1822L826 1821z"/>
<path style="fill:#656363; stroke:none;" d="M865 1821L866 1822L865 1821M887 1821L888 1822L887 1821z"/>
<path style="fill:#2f2f2f; stroke:none;" d="M892 1821L893 1822L892 1821z"/>
<path style="fill:#656363; stroke:none;" d="M954 1821L955 1822L954 1821z"/>
<path style="fill:#a3a3a3; stroke:none;" d="M960 1821L961 1822L960 1821z"/>
<path style="fill:#656363; stroke:none;" d="M1022 1821L1023 1822L1022 1821z"/>
<path style="fill:#a3a3a3; stroke:none;" d="M1061 1821L1062 1822L1061 1821z"/>
<path style="fill:#656363; stroke:none;" d="M1198 1821L1199 1822L1198 1821z"/>
<path style="fill:#a3a3a3; stroke:none;" d="M1237 1821L1238 1822L1237 1821M1243 1821L1244 1822L1243 1821M1257 1821L1258 1822L1257 1821M1263 1821L1264 1822L1263 1821z"/>
<path style="fill:#656363; stroke:none;" d="M1302 1821L1303 1822L1302 1821M1330 1821L1331 1822L1330 1821M1340 1821L1341 1822L1340 1821z"/>
<path style="fill:#a3a3a3; stroke:none;" d="M767 1822L768 1823L767 1822M802 1822L803 1823L802 1822M808 1822L809 1823L808 1822z"/>
<path style="fill:#2f2f2f; stroke:none;" d="M821 1822L822 1823L821 1822M826 1822L827 1823L826 1822z"/>
<path style="fill:#a3a3a3; stroke:none;" d="M887 1822L888 1823L887 1822M893 1822L894 1823L893 1822M953 1822L954 1823L953 1822z"/>
<path style="fill:#656363; stroke:none;" d="M959 1822L960 1823L959 1822M1017 1822L1018 1823L1017 1822z"/>
<path style="fill:#a3a3a3; stroke:none;" d="M1023 1822L1024 1823L1023 1822z"/>
<path style="fill:#2f2f2f; stroke:none;" d="M1061 1822L1062 1823L1061 1822z"/>
<path style="fill:#a3a3a3; stroke:none;" d="M1199 1822L1200 1823L1199 1822z"/>
<path style="fill:#656363; stroke:none;" d="M1237 1822L1238 1823L1237 1822z"/>
<path style="fill:#2f2f2f; stroke:none;" d="M1263 1822L1264 1823L1263 1822z"/>
<path style="fill:#a3a3a3; stroke:none;" d="M1301 1822L1302 1823L1301 1822z"/>
<path style="fill:#656363; stroke:none;" d="M1307 1822L1308 1823L1307 1822z"/>
<path style="fill:#2f2f2f; stroke:none;" d="M1324 1822L1325 1823L1324 1822M1329 1822L1330 1823L1329 1822z"/>
<path style="fill:#656363; stroke:none;" d="M1346 1822L1347 1823L1346 1822z"/>
<path style="fill:#2f2f2f; stroke:none;" d="M762 1823L763 1824L762 1823M767 1823L768 1824L767 1823z"/>
<path style="fill:#656363; stroke:none;" d="M802 1823L803 1824L802 1823z"/>
<path style="fill:#a3a3a3; stroke:none;" d="M821 1823L822 1824L821 1823M827 1823L828 1824L827 1823z"/>
<path style="fill:#2f2f2f; stroke:none;" d="M864 1823L865 1824L864 1823M888 1823L889 1824L888 1823z"/>
<path style="fill:#656363; stroke:none;" d="M929 1823L930 1824L929 1823z"/>
<path style="fill:#2f2f2f; stroke:none;" d="M953 1823L954 1824L953 1823M1023 1823L1024 1824L1023 1823z"/>
<path style="fill:#a3a3a3; stroke:none;" d="M1060 1823L1061 1824L1060 1823z"/>
<path style="fill:#2f2f2f; stroke:none;" d="M1199 1823L1200 1824L1199 1823z"/>
<path style="fill:#a3a3a3; stroke:none;" d="M1236 1823L1237 1824L1236 1823z"/>
<path style="fill:#656363; stroke:none;" d="M1242 1823L1243 1824L1242 1823z"/>
<path style="fill:#a3a3a3; stroke:none;" d="M1258 1823L1259 1824L1258 1823M1264 1823L1265 1824L1264 1823z"/>
<path style="fill:#2f2f2f; stroke:none;" d="M1301 1823L1302 1824L1301 1823z"/>
<path style="fill:#a3a3a3; stroke:none;" d="M1323 1823L1324 1824L1323 1823M1329 1823L1330 1824L1329 1823M1341 1823L1342 1824L1341 1823M1347 1823L1348 1824L1347 1823z"/>
<path style="fill:#656363; stroke:none;" d="M762 1824L763 1825L762 1824z"/>
<path style="fill:#a3a3a3; stroke:none;" d="M768 1824L769 1825L768 1824M801 1824L802 1825L801 1824z"/>
<path style="fill:#656363; stroke:none;" d="M807 1824L808 1825L807 1824z"/>
<path style="fill:#2f2f2f; stroke:none;" d="M822 1824L823 1825L822 1824z"/>
<path style="fill:#a3a3a3; stroke:none;" d="M828 1824L829 1825L828 1824M863 1824L864 1825L863 1824M888 1824L889 1825L888 1824z"/>
<path style="fill:#656363; stroke:none;" d="M894 1824L895 1825L894 1824M934 1824L935 1825L934 1824M952 1824L953 1825L952 1824z"/>
<path style="fill:#a3a3a3; stroke:none;" d="M958 1824L959 1825L958 1824z"/>
<path style="fill:#656363; stroke:none;" d="M1018 1824L1019 1825L1018 1824M1024 1824L1025 1825L1024 1824z"/>
<path style="fill:#a3a3a3; stroke:none;" d="M1059 1824L1060 1825L1059 1824z"/>
<path style="fill:#656363; stroke:none;" d="M1200 1824L1201 1825L1200 1824z"/>
<path style="fill:#2f2f2f; stroke:none;" d="M1259 1824L1260 1825L1259 1824z"/>
<path style="fill:#a3a3a3; stroke:none;" d="M1265 1824L1266 1825L1265 1824z"/>
<path style="fill:#656363; stroke:none;" d="M1300 1824L1301 1825L1300 1824M1306 1824L1307 1825L1306 1824z"/>
<path style="fill:#a3a3a3; stroke:none;" d="M1322 1824L1323 1825L1322 1824z"/>
<path style="fill:#656363; stroke:none;" d="M1328 1824L1329 1825L1328 1824M1342 1824L1343 1825L1342 1824z"/>
<path style="fill:#2f2f2f; stroke:none;" d="M801 1825L802 1826L801 1825z"/>
<path style="fill:#a3a3a3; stroke:none;" d="M807 1825L808 1826L807 1825M822 1825L823 1826L822 1825M862 1825L863 1826L862 1825z"/>
<path style="fill:#656363; stroke:none;" d="M867 1825L868 1826L867 1825M889 1825L890 1826L889 1825z"/>
<path style="fill:#a3a3a3; stroke:none;" d="M895 1825L896 1826L895 1825z"/>
<path style="fill:#2f2f2f; stroke:none;" d="M928 1825L929 1826L928 1825z"/>
<path style="fill:#a3a3a3; stroke:none;" d="M934 1825L935 1826L934 1825M951 1825L952 1826L951 1825z"/>
<path style="fill:#656363; stroke:none;" d="M957 1825L958 1826L957 1825z"/>
<path style="fill:#2f2f2f; stroke:none;" d="M1019 1825L1020 1826L1019 1825z"/>
<path style="fill:#a3a3a3; stroke:none;" d="M1025 1825L1026 1826L1025 1825z"/>
<path style="fill:#2f2f2f; stroke:none;" d="M1059 1825L1060 1826L1059 1825M1064 1825L1065 1826L1064 1825z"/>
<path style="fill:#656363; stroke:none;" d="M1196 1825L1197 1826L1196 1825z"/>
<path style="fill:#a3a3a3; stroke:none;" d="M1201 1825L1202 1826L1201 1825z"/>
<path style="fill:#2f2f2f; stroke:none;" d="M1235 1825L1236 1826L1235 1825z"/>
<path style="fill:#a3a3a3; stroke:none;" d="M1241 1825L1242 1826L1241 1825M1259 1825L1260 1826L1259 1825M1299 1825L1300 1826L1299 1825z"/>
<path style="fill:#2f2f2f; stroke:none;" d="M1305 1825L1306 1826L1305 1825M1322 1825L1323 1826L1322 1825M1327 1825L1328 1826L1327 1825z"/>
<path style="fill:#656363; stroke:none;" d="M1348 1825L1349 1826L1348 1825M763 1826L764 1827L763 1826z"/>
<path style="fill:#2f2f2f; stroke:none;" d="M769 1826L770 1827L769 1826z"/>
<path style="fill:#656363; stroke:none;" d="M800 1826L801 1827L800 1826z"/>
<path style="fill:#2f2f2f; stroke:none;" d="M806 1826L807 1827L806 1826z"/>
<path style="fill:#656363; stroke:none;" d="M823 1826L824 1827L823 1826z"/>
<path style="fill:#2f2f2f; stroke:none;" d="M829 1826L830 1827L829 1826z"/>
<path style="fill:#a3a3a3; stroke:none;" d="M861 1826L862 1827L861 1826z"/>
<path style="fill:#2f2f2f; stroke:none;" d="M866 1826L867 1827L866 1826z"/>
<path style="fill:#a3a3a3; stroke:none;" d="M889 1826L890 1827L889 1826M896 1826L897 1827L896 1826z"/>
<path style="fill:#656363; stroke:none;" d="M927 1826L928 1827L927 1826M933 1826L934 1827L933 1826z"/>
<path style="fill:#2f2f2f; stroke:none;" d="M956 1826L957 1827L956 1826z"/>
<path style="fill:#a3a3a3; stroke:none;" d="M1019 1826L1020 1827L1019 1826M1026 1826L1027 1827L1026 1826z"/>
<path style="fill:#2f2f2f; stroke:none;" d="M1058 1826L1059 1827L1058 1826z"/>
<path style="fill:#a3a3a3; stroke:none;" d="M1063 1826L1064 1827L1063 1826z"/>
<path style="fill:#656363; stroke:none;" d="M1064 1826L1064 1836L1065 1836L1064 1826z"/>
<path style="fill:#a3a3a3; stroke:none;" d="M1196 1826L1196 1828L1198 1828L1196 1826z"/>
<path style="fill:#2f2f2f; stroke:none;" d="M1197 1826L1198 1827L1197 1826z"/>
<path style="fill:#a3a3a3; stroke:none;" d="M1202 1826L1203 1827L1202 1826z"/>
<path style="fill:#656363; stroke:none;" d="M1234 1826L1235 1827L1234 1826z"/>
<path style="fill:#2f2f2f; stroke:none;" d="M1240 1826L1241 1827L1240 1826z"/>
<path style="fill:#656363; stroke:none;" d="M1260 1826L1261 1827L1260 1826z"/>
<path style="fill:#2f2f2f; stroke:none;" d="M1266 1826L1267 1827L1266 1826z"/>
<path style="fill:#a3a3a3; stroke:none;" d="M1298 1826L1299 1827L1298 1826M1305 1826L1306 1827L1305 1826M1321 1826L1322 1827L1321 1826M1327 1826L1328 1827L1327 1826M1343 1826L1344 1827L1343 1826M1349 1826L1350 1827L1349 1826z"/>
<path style="fill:#656363; stroke:none;" d="M770 1827L771 1828L770 1827M799 1827L800 1828L799 1827z"/>
<path style="fill:#a3a3a3; stroke:none;" d="M806 1827L807 1828L806 1827z"/>
<path style="fill:#2f2f2f; stroke:none;" d="M824 1827L825 1828L824 1827M830 1827L831 1828L830 1827z"/>
<path style="fill:#a3a3a3; stroke:none;" d="M860 1827L861 1828L860 1827M866 1827L867 1828L866 1827M890 1827L891 1828L890 1827M897 1827L898 1828L897 1827M926 1827L927 1828L926 1827z"/>
<path style="fill:#2f2f2f; stroke:none;" d="M950 1827L951 1828L950 1827z"/>
<path style="fill:#a3a3a3; stroke:none;" d="M956 1827L957 1828L956 1827z"/>
<path style="fill:#656363; stroke:none;" d="M1020 1827L1021 1828L1020 1827z"/>
<path style="fill:#a3a3a3; stroke:none;" d="M1027 1827L1028 1828L1027 1827z"/>
<path style="fill:#2f2f2f; stroke:none;" d="M1057 1827L1058 1828L1057 1827z"/>
<path style="fill:#656363; stroke:none;" d="M1062 1827L1063 1828L1062 1827z"/>
<path style="fill:#a3a3a3; stroke:none;" d="M1203 1827L1204 1828L1203 1827z"/>
<path style="fill:#656363; stroke:none;" d="M1233 1827L1234 1828L1233 1827z"/>
<path style="fill:#2f2f2f; stroke:none;" d="M1261 1827L1262 1828L1261 1827M1267 1827L1268 1828L1267 1827z"/>
<path style="fill:#a3a3a3; stroke:none;" d="M1297 1827L1298 1828L1297 1827z"/>
<path style="fill:#656363; stroke:none;" d="M1304 1827L1305 1828L1304 1827M1326 1827L1327 1828L1326 1827M1344 1827L1345 1828L1344 1827z"/>
<path style="fill:#a3a3a3; stroke:none;" d="M764 1828L765 1829L764 1828z"/>
<path style="fill:#656363; stroke:none;" d="M771 1828L772 1829L771 1828M798 1828L799 1829L798 1828M805 1828L806 1829L805 1828z"/>
<path style="fill:#a3a3a3; stroke:none;" d="M832 1828L833 1829L832 1828M859 1828L860 1829L859 1828z"/>
<path style="fill:#656363; stroke:none;" d="M865 1828L866 1829L865 1828M891 1828L892 1829L891 1828z"/>
<path style="fill:#a3a3a3; stroke:none;" d="M898 1828L899 1829L898 1828M925 1828L926 1829L925 1828M932 1828L933 1829L932 1828M949 1828L950 1829L949 1828z"/>
<path style="fill:#656363; stroke:none;" d="M955 1828L956 1829L955 1828M1021 1828L1022 1829L1021 1828z"/>
<path style="fill:#a3a3a3; stroke:none;" d="M1028 1828L1029 1829L1028 1828M1055 1828L1056 1829L1055 1828z"/>
<path style="fill:#2f2f2f; stroke:none;" d="M1056 1828L1057 1829L1056 1828M1061 1828L1062 1829L1061 1828z"/>
<path style="fill:#a3a3a3; stroke:none;" d="M1198 1828L1199 1829L1198 1828z"/>
<path style="fill:#656363; stroke:none;" d="M1204 1828L1205 1829L1204 1828z"/>
<path style="fill:#2f2f2f; stroke:none;" d="M1232 1828L1233 1829L1232 1828z"/>
<path style="fill:#a3a3a3; stroke:none;" d="M1239 1828L1240 1829L1239 1828M1269 1828L1270 1829L1269 1828M1296 1828L1297 1829L1296 1828z"/>
<path style="fill:#656363; stroke:none;" d="M1303 1828L1304 1829L1303 1828z"/>
<path style="fill:#2f2f2f; stroke:none;" d="M1320 1828L1321 1829L1320 1828M1325 1828L1326 1829L1325 1828M1345 1828L1346 1829L1345 1828z"/>
<path style="fill:#656363; stroke:none;" d="M1350 1828L1351 1829L1350 1828M765 1829L766 1830L765 1829z"/>
<path style="fill:#2f2f2f; stroke:none;" d="M772 1829L773 1830L772 1829z"/>
<path style="fill:#a3a3a3; stroke:none;" d="M773 1829L774 1830L773 1829M796 1829L797 1830L796 1829z"/>
<path style="fill:#2f2f2f; stroke:none;" d="M797 1829L798 1830L797 1829z"/>
<path style="fill:#656363; stroke:none;" d="M804 1829L805 1830L804 1829z"/>
<path style="fill:#a3a3a3; stroke:none;" d="M825 1829L826 1830L825 1829M833 1829L834 1830L833 1829z"/>
<path style="fill:#656363; stroke:none;" d="M858 1829L859 1830L858 1829M864 1829L865 1830L864 1829z"/>
<path style="fill:#2f2f2f; stroke:none;" d="M892 1829L893 1830L892 1829z"/>
<path style="fill:#656363; stroke:none;" d="M899 1829L900 1830L899 1829M924 1829L925 1830L924 1829M931 1829L932 1830L931 1829z"/>
<path style="fill:#a3a3a3; stroke:none;" d="M948 1829L949 1830L948 1829z"/>
<path style="fill:#2f2f2f; stroke:none;" d="M954 1829L955 1830L954 1829M1022 1829L1023 1830L1022 1829z"/>
<path style="fill:#656363; stroke:none;" d="M1029 1829L1030 1830L1029 1829z"/>
<path style="fill:#a3a3a3; stroke:none;" d="M1054 1829L1055 1830L1054 1829z"/>
<path style="fill:#2f2f2f; stroke:none;" d="M1060 1829L1061 1830L1060 1829z"/>
<path style="fill:#656363; stroke:none;" d="M1199 1829L1200 1830L1199 1829z"/>
<path style="fill:#2f2f2f; stroke:none;" d="M1205 1829L1206 1830L1205 1829z"/>
<path style="fill:#a3a3a3; stroke:none;" d="M1230 1829L1231 1830L1230 1829M1238 1829L1239 1830L1238 1829M1262 1829L1263 1830L1262 1829M1270 1829L1271 1830L1270 1829z"/>
<path style="fill:#656363; stroke:none;" d="M1295 1829L1296 1830L1295 1829z"/>
<path style="fill:#2f2f2f; stroke:none;" d="M1302 1829L1303 1830L1302 1829z"/>
<path style="fill:#a3a3a3; stroke:none;" d="M1319 1829L1320 1830L1319 1829M1325 1829L1326 1830L1325 1829M1345 1829L1346 1830L1345 1829M1351 1829L1352 1830L1351 1829z"/>
<path style="fill:#656363; stroke:none;" d="M766 1830L767 1831L766 1830M774 1830L775 1831L774 1830M795 1830L796 1831L795 1830z"/>
<path style="fill:#2f2f2f; stroke:none;" d="M803 1830L804 1831L803 1830z"/>
<path style="fill:#a3a3a3; stroke:none;" d="M826 1830L827 1831L826 1830z"/>
<path style="fill:#2f2f2f; stroke:none;" d="M834 1830L835 1831L834 1830z"/>
<path style="fill:#a3a3a3; stroke:none;" d="M835 1830L836 1831L835 1830M856 1830L857 1831L856 1830z"/>
<path style="fill:#2f2f2f; stroke:none;" d="M863 1830L864 1831L863 1830M893 1830L894 1831L893 1830M900 1830L901 1831L900 1830z"/>
<path style="fill:#a3a3a3; stroke:none;" d="M901 1830L902 1831L901 1830M922 1830L923 1831L922 1830z"/>
<path style="fill:#2f2f2f; stroke:none;" d="M923 1830L924 1831L923 1830M930 1830L931 1831L930 1830M948 1830L949 1831L948 1830M1023 1830L1024 1831L1023 1830z"/>
<path style="fill:#a3a3a3; stroke:none;" d="M1031 1830L1032 1831L1031 1830M1052 1830L1053 1831L1052 1830z"/>
<path style="fill:#2f2f2f; stroke:none;" d="M1053 1830L1054 1831L1053 1830z"/>
<path style="fill:#a3a3a3; stroke:none;" d="M1060 1830L1061 1831L1060 1830z"/>
<path style="fill:#656363; stroke:none;" d="M1200 1830L1201 1831L1200 1830M1207 1830L1208 1831L1207 1830z"/>
<path style="fill:#a3a3a3; stroke:none;" d="M1228 1830L1229 1831L1228 1830z"/>
<path style="fill:#2f2f2f; stroke:none;" d="M1229 1830L1230 1831L1229 1830z"/>
<path style="fill:#a3a3a3; stroke:none;" d="M1237 1830L1238 1831L1237 1830M1263 1830L1264 1831L1263 1830z"/>
<path style="fill:#2f2f2f; stroke:none;" d="M1271 1830L1272 1831L1271 1830z"/>
<path style="fill:#a3a3a3; stroke:none;" d="M1272 1830L1273 1831L1272 1830M1293 1830L1294 1831L1293 1830z"/>
<path style="fill:#2f2f2f; stroke:none;" d="M1301 1830L1302 1831L1301 1830z"/>
<path style="fill:#a3a3a3; stroke:none;" d="M1318 1830L1319 1831L1318 1830z"/>
<path style="fill:#656363; stroke:none;" d="M1324 1830L1325 1831L1324 1830M1346 1830L1347 1831L1346 1830M767 1831L768 1832L767 1831M776 1831L777 1832L776 1831z"/>
<path style="fill:#a3a3a3; stroke:none;" d="M777 1831L778 1832L777 1831M792 1831L793 1832L792 1831z"/>
<path style="fill:#656363; stroke:none;" d="M793 1831L794 1832L793 1831z"/>
<path style="fill:#2f2f2f; stroke:none;" d="M802 1831L803 1832L802 1831z"/>
<path style="fill:#a3a3a3; stroke:none;" d="M827 1831L828 1832L827 1831z"/>
<path style="fill:#2f2f2f; stroke:none;" d="M836 1831L837 1832L836 1831z"/>
<path style="fill:#a3a3a3; stroke:none;" d="M837 1831L838 1832L837 1831M854 1831L855 1832L854 1831z"/>
<path style="fill:#2f2f2f; stroke:none;" d="M862 1831L863 1832L862 1831M894 1831L895 1832L894 1831M902 1831L903 1832L902 1831z"/>
<path style="fill:#a3a3a3; stroke:none;" d="M903 1831L904 1832L903 1831M920 1831L921 1832L920 1831z"/>
<path style="fill:#2f2f2f; stroke:none;" d="M921 1831L922 1832L921 1831M929 1831L930 1832L929 1831z"/>
<path style="fill:#656363; stroke:none;" d="M947 1831L948 1832L947 1831z"/>
<path style="fill:#a3a3a3; stroke:none;" d="M953 1831L954 1832L953 1831z"/>
<path style="fill:#2f2f2f; stroke:none;" d="M1024 1831L1025 1832L1024 1831z"/>
<path style="fill:#656363; stroke:none;" d="M1033 1831L1034 1832L1033 1831z"/>
<path style="fill:#a3a3a3; stroke:none;" d="M1050 1831L1051 1832L1050 1831z"/>
<path style="fill:#2f2f2f; stroke:none;" d="M1051 1831L1052 1832L1051 1831z"/>
<path style="fill:#a3a3a3; stroke:none;" d="M1059 1831L1060 1832L1059 1831z"/>
<path style="fill:#656363; stroke:none;" d="M1201 1831L1202 1832L1201 1831M1209 1831L1210 1832L1209 1831z"/>
<path style="fill:#a3a3a3; stroke:none;" d="M1210 1831L1211 1832L1210 1831M1226 1831L1227 1832L1226 1831z"/>
<path style="fill:#2f2f2f; stroke:none;" d="M1227 1831L1228 1832L1227 1831z"/>
<path style="fill:#a3a3a3; stroke:none;" d="M1236 1831L1237 1832L1236 1831M1264 1831L1265 1832L1264 1831z"/>
<path style="fill:#2f2f2f; stroke:none;" d="M1273 1831L1274 1832L1273 1831z"/>
<path style="fill:#a3a3a3; stroke:none;" d="M1274 1831L1275 1832L1274 1831M1290.67 1831.33L1291.33 1831.67L1290.67 1831.33z"/>
<path style="fill:#656363; stroke:none;" d="M1300 1831L1301 1832L1300 1831z"/>
<path style="fill:#2f2f2f; stroke:none;" d="M1318 1831L1319 1832L1318 1831M1323 1831L1324 1832L1323 1831z"/>
<path style="fill:#656363; stroke:none;" d="M1352 1831L1353 1832L1352 1831M768 1832L769 1833L768 1832z"/>
<path style="fill:#2f2f2f; stroke:none;" d="M779 1832L780 1833L779 1832z"/>
<path style="fill:#a3a3a3; stroke:none;" d="M780 1832L780 1833L783 1833L780 1832M786 1832L786 1833L790 1833L786 1832z"/>
<path style="fill:#656363; stroke:none;" d="M790 1832L791 1833L790 1832z"/>
<path style="fill:#2f2f2f; stroke:none;" d="M801 1832L802 1833L801 1832M829 1832L830 1833L829 1832z"/>
<path style="fill:#656363; stroke:none;" d="M839 1832L840 1833L839 1832z"/>
<path style="fill:#a3a3a3; stroke:none;" d="M840.667 1832.33L841.333 1832.67L840.667 1832.33M850.667 1832.33L851.333 1832.67L850.667 1832.33z"/>
<path style="fill:#2f2f2f; stroke:none;" d="M852 1832L853 1833L852 1832z"/>
<path style="fill:#656363; stroke:none;" d="M861 1832L862 1833L861 1832M895 1832L896 1833L895 1832z"/>
<path style="fill:#2f2f2f; stroke:none;" d="M905 1832L906 1833L905 1832z"/>
<path style="fill:#a3a3a3; stroke:none;" d="M906.667 1832.33L907.333 1832.67L906.667 1832.33M916.667 1832.33L917.333 1832.67L916.667 1832.33z"/>
<path style="fill:#656363; stroke:none;" d="M918 1832L919 1833L918 1832M928 1832L929 1833L928 1832z"/>
<path style="fill:#a3a3a3; stroke:none;" d="M946 1832L947 1833L946 1832z"/>
<path style="fill:#656363; stroke:none;" d="M984 1832L984 1837L985 1837L984 1832M1025 1832L1026 1833L1025 1832z"/>
<path style="fill:#2f2f2f; stroke:none;" d="M1035 1832L1036 1833L1035 1832z"/>
<path style="fill:#656363; stroke:none;" d="M1036 1832L1037 1833L1036 1832z"/>
<path style="fill:#a3a3a3; stroke:none;" d="M1037 1832L1038 1833L1037 1832M1046.67 1832.33L1047.33 1832.67L1046.67 1832.33z"/>
<path style="fill:#656363; stroke:none;" d="M1048 1832L1049 1833L1048 1832z"/>
<path style="fill:#2f2f2f; stroke:none;" d="M1057 1832L1058 1833L1057 1832z"/>
<path style="fill:#a3a3a3; stroke:none;" d="M1202 1832L1203 1833L1202 1832z"/>
<path style="fill:#2f2f2f; stroke:none;" d="M1211 1832L1212 1833L1211 1832z"/>
<path style="fill:#656363; stroke:none;" d="M1212 1832L1213 1833L1212 1832z"/>
<path style="fill:#a3a3a3; stroke:none;" d="M1213 1832L1214 1833L1213 1832M1222.67 1832.33L1223.33 1832.67L1222.67 1832.33z"/>
<path style="fill:#656363; stroke:none;" d="M1224 1832L1225 1833L1224 1832z"/>
<path style="fill:#2f2f2f; stroke:none;" d="M1234 1832L1235 1833L1234 1832z"/>
<path style="fill:#a3a3a3; stroke:none;" d="M1235 1832L1236 1833L1235 1832z"/>
<path style="fill:#2f2f2f; stroke:none;" d="M1266 1832L1267 1833L1266 1832z"/>
<path style="fill:#656363; stroke:none;" d="M1276 1832L1277 1833L1276 1832z"/>
<path style="fill:#a3a3a3; stroke:none;" d="M1277.67 1832.33L1278.33 1832.67L1277.67 1832.33M1287.67 1832.33L1288.33 1832.67L1287.67 1832.33z"/>
<path style="fill:#2f2f2f; stroke:none;" d="M1289 1832L1290 1833L1289 1832z"/>
<path style="fill:#656363; stroke:none;" d="M1299 1832L1300 1833L1299 1832z"/>
<path style="fill:#a3a3a3; stroke:none;" d="M1317 1832L1318 1833L1317 1832M1323 1832L1324 1833L1323 1832M1347 1832L1348 1833L1347 1832M1353 1832L1354 1833L1353 1832M769 1833L770 1834L769 1833z"/>
<path style="fill:#656363; stroke:none;" d="M800 1833L801 1834L800 1833z"/>
<path style="fill:#a3a3a3; stroke:none;" d="M830 1833L831 1834L830 1833z"/>
<path style="fill:#2f2f2f; stroke:none;" d="M844 1833L844 1834L847 1834L844 1833z"/>
<path style="fill:#a3a3a3; stroke:none;" d="M860 1833L861 1834L860 1833M896 1833L897 1834L896 1833z"/>
<path style="fill:#2f2f2f; stroke:none;" d="M910 1833L910 1834L914 1834L910 1833z"/>
<path style="fill:#a3a3a3; stroke:none;" d="M927 1833L928 1834L927 1833M1026 1833L1027 1834L1026 1833z"/>
<path style="fill:#2f2f2f; stroke:none;" d="M1041 1833L1041 1834L1044 1834L1041 1833z"/>
<path style="fill:#656363; stroke:none;" d="M1056 1833L1057 1834L1056 1833z"/>
<path style="fill:#a3a3a3; stroke:none;" d="M1090 1833L1091 1834L1090 1833M1196 1833L1197 1834L1196 1833M1203 1833L1204 1834L1203 1833z"/>
<path style="fill:#2f2f2f; stroke:none;" d="M1204 1833L1205 1834L1204 1833M1217 1833L1217 1834L1220 1834L1217 1833z"/>
<path style="fill:#656363; stroke:none;" d="M1233 1833L1234 1834L1233 1833z"/>
<path style="fill:#a3a3a3; stroke:none;" d="M1267 1833L1268 1834L1267 1833z"/>
<path style="fill:#2f2f2f; stroke:none;" d="M1281 1833L1281 1834L1284 1834L1281 1833M1297 1833L1298 1834L1297 1833z"/>
<path style="fill:#a3a3a3; stroke:none;" d="M1298 1833L1299 1834L1298 1833M1316 1833L1317 1834L1316 1833z"/>
<path style="fill:#656363; stroke:none;" d="M1322 1833L1323 1834L1322 1833M1348 1833L1349 1834L1348 1833M771 1834L772 1835L771 1834z"/>
<path style="fill:#2f2f2f; stroke:none;" d="M798 1834L799 1835L798 1834z"/>
<path style="fill:#a3a3a3; stroke:none;" d="M799 1834L800 1835L799 1834M831 1834L832 1835L831 1834z"/>
<path style="fill:#2f2f2f; stroke:none;" d="M832 1834L833 1835L832 1834z"/>
<path style="fill:#656363; stroke:none;" d="M858 1834L859 1835L858 1834z"/>
<path style="fill:#a3a3a3; stroke:none;" d="M859 1834L860 1835L859 1834z"/>
<path style="fill:#656363; stroke:none;" d="M898 1834L899 1835L898 1834M925 1834L926 1835L925 1834z"/>
<path style="fill:#a3a3a3; stroke:none;" d="M926 1834L927 1835L926 1834z"/>
<path style="fill:#656363; stroke:none;" d="M1028 1834L1029 1835L1028 1834z"/>
<path style="fill:#2f2f2f; stroke:none;" d="M1054 1834L1055 1835L1054 1834z"/>
<path style="fill:#a3a3a3; stroke:none;" d="M1055 1834L1056 1835L1055 1834z"/>
<path style="fill:#656363; stroke:none;" d="M1205 1834L1206 1835L1205 1834z"/>
<path style="fill:#2f2f2f; stroke:none;" d="M1231 1834L1232 1835L1231 1834z"/>
<path style="fill:#a3a3a3; stroke:none;" d="M1232 1834L1233 1835L1232 1834z"/>
<path style="fill:#656363; stroke:none;" d="M1269 1834L1270 1835L1269 1834M1296 1834L1297 1835L1296 1834z"/>
<path style="fill:#2f2f2f; stroke:none;" d="M1316 1834L1317 1835L1316 1834M1321 1834L1322 1835L1321 1834z"/>
<path style="fill:#656363; stroke:none;" d="M1354 1834L1355 1835L1354 1834M773 1835L774 1836L773 1835z"/>
<path style="fill:#2f2f2f; stroke:none;" d="M796 1835L797 1836L796 1835z"/>
<path style="fill:#a3a3a3; stroke:none;" d="M797 1835L798 1836L797 1835M833 1835L834 1836L833 1835z"/>
<path style="fill:#2f2f2f; stroke:none;" d="M834 1835L835 1836L834 1835M856 1835L857 1836L856 1835z"/>
<path style="fill:#a3a3a3; stroke:none;" d="M857 1835L858 1836L857 1835M899 1835L900 1836L899 1835z"/>
<path style="fill:#656363; stroke:none;" d="M900 1835L901 1836L900 1835M923 1835L924 1836L923 1835z"/>
<path style="fill:#a3a3a3; stroke:none;" d="M924 1835L925 1836L924 1835M1001 1835L1002 1836L1001 1835z"/>
<path style="fill:#656363; stroke:none;" d="M1030 1835L1031 1836L1030 1835z"/>
<path style="fill:#2f2f2f; stroke:none;" d="M1052 1835L1053 1836L1052 1835z"/>
<path style="fill:#a3a3a3; stroke:none;" d="M1053 1835L1054 1836L1053 1835z"/>
<path style="fill:#656363; stroke:none;" d="M1207 1835L1208 1836L1207 1835z"/>
<path style="fill:#2f2f2f; stroke:none;" d="M1229 1835L1230 1836L1229 1835z"/>
<path style="fill:#a3a3a3; stroke:none;" d="M1230 1835L1231 1836L1230 1835M1270 1835L1271 1836L1270 1835z"/>
<path style="fill:#656363; stroke:none;" d="M1271 1835L1272 1836L1271 1835M1294 1835L1295 1836L1294 1835M1315 1835L1316 1836L1315 1835z"/>
<path style="fill:#a3a3a3; stroke:none;" d="M1321 1835L1322 1836L1321 1835M1349 1835L1350 1836L1349 1835M1355 1835L1356 1836L1355 1835M775 1836L776 1837L775 1836z"/>
<path style="fill:#2f2f2f; stroke:none;" d="M776 1836L777 1837L776 1836M793 1836L794 1837L793 1836z"/>
<path style="fill:#656363; stroke:none;" d="M794 1836L795 1837L794 1836M836 1836L837 1837L836 1836z"/>
<path style="fill:#2f2f2f; stroke:none;" d="M837 1836L838 1837L837 1836M853 1836L854 1837L853 1836z"/>
<path style="fill:#656363; stroke:none;" d="M854 1836L855 1837L854 1836z"/>
<path style="fill:#a3a3a3; stroke:none;" d="M855 1836L856 1837L855 1836M902 1836L903 1837L902 1836z"/>
<path style="fill:#2f2f2f; stroke:none;" d="M903 1836L904 1837L903 1836M920 1836L921 1837L920 1836z"/>
<path style="fill:#656363; stroke:none;" d="M921 1836L922 1837L921 1836z"/>
<path style="fill:#a3a3a3; stroke:none;" d="M1032 1836L1033 1837L1032 1836z"/>
<path style="fill:#2f2f2f; stroke:none;" d="M1033 1836L1034 1837L1033 1836z"/>
<path style="fill:#656363; stroke:none;" d="M1050 1836L1051 1837L1050 1836z"/>
<path style="fill:#a3a3a3; stroke:none;" d="M1051 1836L1052 1837L1051 1836z"/>
<path style="fill:#2f2f2f; stroke:none;" d="M1064.33 1836.67L1064.67 1837.33L1064.33 1836.67z"/>
<path style="fill:#a3a3a3; stroke:none;" d="M1209 1836L1210 1837L1209 1836z"/>
<path style="fill:#2f2f2f; stroke:none;" d="M1210 1836L1211 1837L1210 1836z"/>
<path style="fill:#656363; stroke:none;" d="M1227 1836L1228 1837L1227 1836z"/>
<path style="fill:#a3a3a3; stroke:none;" d="M1228 1836L1229 1837L1228 1836M1273 1836L1274 1837L1273 1836z"/>
<path style="fill:#2f2f2f; stroke:none;" d="M1274 1836L1275 1837L1274 1836z"/>
<path style="fill:#656363; stroke:none;" d="M1291 1836L1292 1837L1291 1836z"/>
<path style="fill:#a3a3a3; stroke:none;" d="M1292 1836L1293 1837L1292 1836M1314 1836L1315 1837L1314 1836M1320 1836L1321 1837L1320 1836z"/>
<path style="fill:#656363; stroke:none;" d="M1350 1836L1351 1837L1350 1836z"/>
<path style="fill:#a3a3a3; stroke:none;" d="M778 1837L779 1838L778 1837z"/>
<path style="fill:#656363; stroke:none;" d="M779.667 1837.33L780.333 1837.67L779.667 1837.33z"/>
<path style="fill:#2f2f2f; stroke:none;" d="M781 1837L782 1838L781 1837M789 1837L790 1838L789 1837z"/>
<path style="fill:#656363; stroke:none;" d="M790 1837L791 1838L790 1837z"/>
<path style="fill:#a3a3a3; stroke:none;" d="M791 1837L792 1838L791 1837M839 1837L840 1838L839 1837z"/>
<path style="fill:#656363; stroke:none;" d="M840 1837L841 1838L840 1837z"/>
<path style="fill:#2f2f2f; stroke:none;" d="M841 1837L842 1838L841 1837M849 1837L850 1838L849 1837z"/>
<path style="fill:#656363; stroke:none;" d="M850 1837L851 1838L850 1837z"/>
<path style="fill:#a3a3a3; stroke:none;" d="M851.667 1837.33L852.333 1837.67L851.667 1837.33M905 1837L906 1838L905 1837z"/>
<path style="fill:#656363; stroke:none;" d="M906.667 1837.33L907.333 1837.67L906.667 1837.33z"/>
<path style="fill:#2f2f2f; stroke:none;" d="M908 1837L909 1838L908 1837M916 1837L917 1838L916 1837z"/>
<path style="fill:#656363; stroke:none;" d="M917 1837L918 1838L917 1837z"/>
<path style="fill:#a3a3a3; stroke:none;" d="M918 1837L919 1838L918 1837M1035 1837L1036 1838L1035 1837z"/>
<path style="fill:#656363; stroke:none;" d="M1036.67 1837.33L1037.33 1837.67L1036.67 1837.33z"/>
<path style="fill:#2f2f2f; stroke:none;" d="M1038 1837L1039 1838L1038 1837M1045 1837L1046 1838L1045 1837z"/>
<path style="fill:#656363; stroke:none;" d="M1046 1837L1047 1838L1046 1837z"/>
<path style="fill:#a3a3a3; stroke:none;" d="M1047.67 1837.33L1048.33 1837.67L1047.67 1837.33M1212 1837L1213 1838L1212 1837z"/>
<path style="fill:#656363; stroke:none;" d="M1213 1837L1214 1838L1213 1837z"/>
<path style="fill:#2f2f2f; stroke:none;" d="M1214 1837L1215 1838L1214 1837M1222 1837L1223 1838L1222 1837z"/>
<path style="fill:#656363; stroke:none;" d="M1223 1837L1224 1838L1223 1837z"/>
<path style="fill:#a3a3a3; stroke:none;" d="M1224.67 1837.33L1225.33 1837.67L1224.67 1837.33M1276 1837L1277 1838L1276 1837z"/>
<path style="fill:#656363; stroke:none;" d="M1277.67 1837.33L1278.33 1837.67L1277.67 1837.33z"/>
<path style="fill:#2f2f2f; stroke:none;" d="M1286 1837L1287 1838L1286 1837z"/>
<path style="fill:#656363; stroke:none;" d="M1287 1837L1288 1838L1287 1837z"/>
<path style="fill:#a3a3a3; stroke:none;" d="M1288.67 1837.33L1289.33 1837.67L1288.67 1837.33M1063.33 1839.67L1063.67 1840.33L1063.33 1839.67z"/>
<path style="fill:#2f2f2f; stroke:none;" d="M1068 1840L1069 1841L1068 1840z"/>
<path style="fill:#656363; stroke:none;" d="M1063 1841L1064 1842L1063 1841M1068 1841L1069 1842L1068 1841z"/>
<path style="fill:#a3a3a3; stroke:none;" d="M1024 1842L1025 1843L1024 1842M1068 1842L1069 1843L1068 1842z"/>
<path style="fill:#2f2f2f; stroke:none;" d="M1019 1843L1020 1844L1019 1843M1024 1843L1025 1844L1024 1843z"/>
<path style="fill:#a3a3a3; stroke:none;" d="M1062 1843L1063 1844L1062 1843M1019 1844L1020 1845L1019 1844M1025 1844L1026 1845L1025 1844z"/>
<path style="fill:#2f2f2f; stroke:none;" d="M1062 1844L1063 1845L1062 1844z"/>
<path style="fill:#656363; stroke:none;" d="M1067 1844L1068 1845L1067 1844z"/>
<path style="fill:#2f2f2f; stroke:none;" d="M1025 1845L1026 1846L1025 1845z"/>
<path style="fill:#a3a3a3; stroke:none;" d="M1061 1845L1062 1846L1061 1845z"/>
<path style="fill:#656363; stroke:none;" d="M1020 1846L1021 1847L1020 1846z"/>
<path style="fill:#a3a3a3; stroke:none;" d="M1026 1846L1027 1847L1026 1846M1060 1846L1061 1847L1060 1846z"/>
<path style="fill:#656363; stroke:none;" d="M1066 1846L1067 1847L1066 1846z"/>
<path style="fill:#2f2f2f; stroke:none;" d="M1136 1846C1136.99 1851.96 1141.96 1851 1147 1851L1180 1851L1180 1850L1137 1850L1136 1846z"/>
<path style="fill:#010101; stroke:none;" d="M1137 1846L1137 1850L1180 1850L1180 1846L1137 1846z"/>
<path style="fill:#656363; stroke:none;" d="M1180 1846L1180 1850L1181 1850L1180 1846z"/>
<path style="fill:#a3a3a3; stroke:none;" d="M1027 1847L1028 1848L1027 1847z"/>
<path style="fill:#2f2f2f; stroke:none;" d="M1060 1847L1061 1848L1060 1847z"/>
<path style="fill:#a3a3a3; stroke:none;" d="M1021 1848L1022 1849L1021 1848M1028 1848L1029 1849L1028 1848z"/>
<path style="fill:#2f2f2f; stroke:none;" d="M1059 1848L1060 1849L1059 1848z"/>
<path style="fill:#a3a3a3; stroke:none;" d="M1065 1848L1066 1849L1065 1848z"/>
<path style="fill:#656363; stroke:none;" d="M1022 1849L1023 1850L1022 1849z"/>
<path style="fill:#a3a3a3; stroke:none;" d="M1029 1849L1030 1850L1029 1849z"/>
<path style="fill:#2f2f2f; stroke:none;" d="M1058 1849L1059 1850L1058 1849z"/>
<path style="fill:#656363; stroke:none;" d="M1064 1849L1065 1850L1064 1849z"/>
<path style="fill:#2f2f2f; stroke:none;" d="M1023 1850L1024 1851L1023 1850z"/>
<path style="fill:#656363; stroke:none;" d="M1030 1850L1031 1851L1030 1850z"/>
<path style="fill:#a3a3a3; stroke:none;" d="M1056 1850L1057 1851L1056 1850z"/>
<path style="fill:#2f2f2f; stroke:none;" d="M1063 1850L1064 1851L1063 1850z"/>
<path style="fill:#656363; stroke:none;" d="M1136 1850L1137 1851L1136 1850z"/>
<path style="fill:#a3a3a3; stroke:none;" d="M1180 1850L1181 1851L1180 1850z"/>
<path style="fill:#2f2f2f; stroke:none;" d="M1024 1851L1025 1852L1024 1851z"/>
<path style="fill:#656363; stroke:none;" d="M1032 1851L1033 1852L1032 1851z"/>
<path style="fill:#a3a3a3; stroke:none;" d="M1054 1851L1055 1852L1054 1851z"/>
<path style="fill:#656363; stroke:none;" d="M1055 1851L1056 1852L1055 1851z"/>
<path style="fill:#2f2f2f; stroke:none;" d="M1062 1851L1063 1852L1062 1851z"/>
<path style="fill:#656363; stroke:none;" d="M1025 1852L1026 1853L1025 1852M1034 1852L1035 1853L1034 1852z"/>
<path style="fill:#a3a3a3; stroke:none;" d="M1035 1852L1036 1853L1035 1852M1052 1852L1053 1853L1052 1852z"/>
<path style="fill:#2f2f2f; stroke:none;" d="M1053 1852L1054 1853L1053 1852M1061 1852L1062 1853L1061 1852z"/>
<path style="fill:#656363; stroke:none;" d="M1026 1853L1027 1854L1026 1853M1037 1853L1038 1854L1037 1853z"/>
<path style="fill:#a3a3a3; stroke:none;" d="M1038.67 1853.33L1039.33 1853.67L1038.67 1853.33M1047 1853L1047 1854L1050 1854L1047 1853z"/>
<path style="fill:#2f2f2f; stroke:none;" d="M1050 1853L1051 1854L1050 1853z"/>
<path style="fill:#656363; stroke:none;" d="M1060 1853L1061 1854L1060 1853z"/>
<path style="fill:#a3a3a3; stroke:none;" d="M1027 1854L1028 1855L1027 1854z"/>
<path style="fill:#2f2f2f; stroke:none;" d="M1028 1854L1029 1855L1028 1854z"/>
<path style="fill:#a3a3a3; stroke:none;" d="M1059 1854L1060 1855L1059 1854M1029 1855L1030 1856L1029 1855z"/>
<path style="fill:#656363; stroke:none;" d="M1057 1855L1058 1856L1057 1855z"/>
<path style="fill:#a3a3a3; stroke:none;" d="M1031 1856L1032 1857L1031 1856z"/>
<path style="fill:#2f2f2f; stroke:none;" d="M1032 1856L1033 1857L1032 1856z"/>
<path style="fill:#656363; stroke:none;" d="M1055 1856L1056 1857L1055 1856z"/>
<path style="fill:#a3a3a3; stroke:none;" d="M1033 1857L1034 1858L1033 1857z"/>
<path style="fill:#656363; stroke:none;" d="M1034 1857L1035 1858L1034 1857z"/>
<path style="fill:#2f2f2f; stroke:none;" d="M1035 1857L1036 1858L1035 1857z"/>
<path style="fill:#656363; stroke:none;" d="M1052 1857L1053 1858L1052 1857z"/>
<path style="fill:#a3a3a3; stroke:none;" d="M1053 1857L1054 1858L1053 1857M1037.67 1858.33L1038.33 1858.67L1037.67 1858.33z"/>
<path style="fill:#656363; stroke:none;" d="M1039 1858L1040 1859L1039 1858z"/>
<path style="fill:#2f2f2f; stroke:none;" d="M1040.67 1858.33L1041.33 1858.67L1040.67 1858.33M1045.67 1858.33L1046.33 1858.67L1045.67 1858.33z"/>
<path style="fill:#656363; stroke:none;" d="M1047.67 1858.33L1048.33 1858.67L1047.67 1858.33z"/>
<path style="fill:#a3a3a3; stroke:none;" d="M1049.67 1858.33L1050.33 1858.67L1049.67 1858.33z"/>
<path style="fill:#010101; stroke:none;" d="M775 1867C813.385 1966.85 872.763 2061.9 950 2135.98C1082 2262.58 1253.82 2332.57 1435 2344.95C1457.63 2346.49 1480.65 2344.58 1503 2343.05C1616.03 2335.34 1726.68 2306.02 1825.8 2248.85C1886.91 2213.61 1947.05 2171.01 1994.94 2119C2062.82 2045.3 2116.86 1961.01 2153 1867L775 1867z"/>
</svg>
