<svg xmlns="http://www.w3.org/2000/svg" width="805" height="600"><rect width="805" height="600" x="0" y="0" fill="#FFFFFF" id="backgorund"/><g transform="translate(10,10)" id="viz"><g id="links"><path d="M0,290C322.5,290,322.5,59.2033227424988,645,59.2033227424988" fill="none" stroke="#ccc"/><path d="M0,290C322.5,290,322.5,183.12489239242302,645,183.12489239242302" fill="none" stroke="#ccc"/><path d="M0,290C322.5,290,322.5,299.24718149284894,645,299.24718149284894" fill="none" stroke="#ccc"/><path d="M0,290C322.5,290,322.5,411.987343030498,645,411.987343030498" fill="none" stroke="#ccc"/><path d="M0,290C322.5,290,322.5,520.7966772575012,645,520.7966772575012" fill="none" stroke="#ccc"/></g><g id="nodes"><g transform="translate(0,290)"><circle fill="#ccc" r="5"/><text text-anchor="end" dominant-baseline="text-before-edge" transform="translate(0,0)"><tspan x="-8" y="0" dy="0" style="font-family: Arial, sans-serif; font-size: 10px; fill: black; font-weight: normal;"/></text></g><g id="North" transform="translate(645,59.2033227424988)"><circle fill="rgb(38, 118, 182)" r="25"/><text text-anchor="start" dominant-baseline="text-before-edge" transform="translate(0,-17.5)"><tspan x="27" y="0" dy="0" style="font-family: Arial, sans-serif; font-size: 10px; fill: black; font-weight: bold;">North</tspan><tspan x="27" y="0" dy="12" style="font-family: Arial, sans-serif; font-size: 10px; fill: black; font-weight: normal;">50</tspan><tspan x="27" y="0" dy="24" style="font-family: Arial, sans-serif; font-size: 10px; fill: black; font-weight: normal; font-style: italic;">18</tspan></text></g><g id="East" transform="translate(645,183.12489239242302)"><circle fill="rgb(8, 48, 107)" r="17.677669529663685"/><text text-anchor="start" dominant-baseline="text-before-edge" transform="translate(0,-17.5)"><tspan x="19.677669529663685" y="0" dy="0" style="font-family: Arial, sans-serif; font-size: 10px; fill: black; font-weight: bold;">East</tspan><tspan x="19.677669529663685" y="0" dy="12" style="font-family: Arial, sans-serif; font-size: 10px; fill: black; font-weight: normal;">25</tspan><tspan x="19.677669529663685" y="0" dy="24" style="font-family: Arial, sans-serif; font-size: 10px; fill: black; font-weight: normal; font-style: italic;">22</tspan></text></g><g id="Central" transform="translate(645,299.24718149284894)"><circle fill="rgb(97, 167, 209)" r="15.811388300841896"/><text text-anchor="start" dominant-baseline="text-before-edge" transform="translate(0,-17.5)"><tspan x="17.811388300841898" y="0" dy="0" style="font-family: Arial, sans-serif; font-size: 10px; fill: black; font-weight: bold;">Central</tspan><tspan x="17.811388300841898" y="0" dy="12" style="font-family: Arial, sans-serif; font-size: 10px; fill: black; font-weight: normal;">20</tspan><tspan x="17.811388300841898" y="0" dy="24" style="font-family: Arial, sans-serif; font-size: 10px; fill: black; font-weight: normal; font-style: italic;">15</tspan></text></g><g id="West" transform="translate(645,411.987343030498)"><circle fill="rgb(147, 195, 223)" r="13.693063937629152"/><text text-anchor="start" dominant-baseline="text-before-edge" transform="translate(0,-17.5)"><tspan x="15.693063937629152" y="0" dy="0" style="font-family: Arial, sans-serif; font-size: 10px; fill: black; font-weight: bold;">West</tspan><tspan x="15.693063937629152" y="0" dy="12" style="font-family: Arial, sans-serif; font-size: 10px; fill: black; font-weight: normal;">15</tspan><tspan x="15.693063937629152" y="0" dy="24" style="font-family: Arial, sans-serif; font-size: 10px; fill: black; font-weight: normal; font-style: italic;">13</tspan></text></g><g id="South" transform="translate(645,520.7966772575012)"><circle fill="rgb(247, 251, 255)" r="11.180339887498949"/><text text-anchor="start" dominant-baseline="text-before-edge" transform="translate(0,-17.5)"><tspan x="13.180339887498949" y="0" dy="0" style="font-family: Arial, sans-serif; font-size: 10px; fill: black; font-weight: bold;">South</tspan><tspan x="13.180339887498949" y="0" dy="12" style="font-family: Arial, sans-serif; font-size: 10px; fill: black; font-weight: normal;">10</tspan><tspan x="13.180339887498949" y="0" dy="24" style="font-family: Arial, sans-serif; font-size: 10px; fill: black; font-weight: normal; font-style: italic;">7</tspan></text></g></g></g></svg>