<svg xmlns="http://www.w3.org/2000/svg" width="805" height="600"><rect width="805" height="600" x="0" y="0" fill="#FFFFFF" id="backgorund"/><g transform="translate(20,20)" id="viz"><g id="nodes"><g transform="translate(383.5,281)"><path id="p_943.5" d="M-5.143516556418883e-14,280A280,280,0,1,1,5.143516556418883e-14,-280A280,280,0,1,1,-5.143516556418883e-14,280Z" fill="none" stroke="#ccc"/></g><g transform="translate(288.7989901379546,285.84616651383635)" id="20"><path id="p_715.8003293314159" d="M-2.6113481580651277e-14,142.15517267962485A142.15517267962485,142.15517267962485,0,1,1,2.6113481580651277e-14,-142.15517267962485A142.15517267962485,142.15517267962485,0,1,1,-2.6113481580651277e-14,142.15517267962485Z" fill="#1f77b4" stroke="none"/></g><g transform="translate(533.44378378201,285.84616651383635)" id="18"><path id="p_918.8088368783538" d="M-1.8465019906068524e-14,100.51888658250738A100.51888658250738,100.51888658250738,0,1,1,1.8465019906068524e-14,-100.51888658250738A100.51888658250738,100.51888658250738,0,1,1,-1.8465019906068524e-14,100.51888658250738Z" fill="#1f77b4" stroke="none"/></g><g transform="translate(447.4085423550833,457.9343119339209)" id="15"><path id="p_994.2496796574354" d="M-1.65156158863424e-14,89.90682536843121A89.90682536843121,89.90682536843121,0,1,1,1.65156158863424e-14,-89.90682536843121A89.90682536843121,89.90682536843121,0,1,1,-1.65156158863424e-14,89.90682536843121Z" fill="#1f77b4" stroke="none"/></g><g transform="translate(445.35855526576256,128.46906041428156)" id="13"><path id="p_650.6892104227168" d="M-1.4302942916718367e-14,77.86159474267265A77.86159474267265,77.86159474267265,0,1,1,1.4302942916718367e-14,-77.86159474267265A77.86159474267265,77.86159474267265,0,1,1,-1.4302942916718367e-14,77.86159474267265Z" fill="#1f77b4" stroke="none"/></g><g transform="translate(310.6456349087525,79.2986861571371)" id="7"><path id="p_452.5180469588621" d="M-1.1678303988704984e-14,63.573725892972426A63.573725892972426,63.573725892972426,0,1,1,1.1678303988704984e-14,-63.573725892972426A63.573725892972426,63.573725892972426,0,1,1,-1.1678303988704984e-14,63.573725892972426Z" fill="#1f77b4" stroke="none"/></g></g><g id="labels"><g transform="translate(288.7989901379546,285.84616651383635)"><text text-anchor="middle" dominant-baseline="text-before-edge" transform="translate(0,-5.5)"><tspan x="0" y="0" dy="0" style="font-family: Arial, sans-serif; font-size: 10px; fill: black; font-weight: bold;">North</tspan></text></g><g transform="translate(533.44378378201,285.84616651383635)"><text text-anchor="middle" dominant-baseline="text-before-edge" transform="translate(0,-5.5)"><tspan x="0" y="0" dy="0" style="font-family: Arial, sans-serif; font-size: 10px; fill: black; font-weight: bold;">East</tspan></text></g><g transform="translate(447.4085423550833,457.9343119339209)"><text text-anchor="middle" dominant-baseline="text-before-edge" transform="translate(0,-5.5)"><tspan x="0" y="0" dy="0" style="font-family: Arial, sans-serif; font-size: 10px; fill: black; font-weight: bold;">Central</tspan></text></g><g transform="translate(445.35855526576256,128.46906041428156)"><text text-anchor="middle" dominant-baseline="text-before-edge" transform="translate(0,-5.5)"><tspan x="0" y="0" dy="0" style="font-family: Arial, sans-serif; font-size: 10px; fill: black; font-weight: bold;">West</tspan></text></g><g transform="translate(310.6456349087525,79.2986861571371)"><text text-anchor="middle" dominant-baseline="text-before-edge" transform="translate(0,-5.5)"><tspan x="0" y="0" dy="0" style="font-family: Arial, sans-serif; font-size: 10px; fill: black; font-weight: bold;">South</tspan></text></g></g></g></svg>